<?xml version="1.0" encoding="UTF-8" standalone="no"?>
<!-- Generator: Adobe Illustrator 23.0.1, SVG Export Plug-In . SVG Version: 6.00 Build 0)  -->

<svg
   xmlns:dc="http://purl.org/dc/elements/1.1/"
   xmlns:cc="http://creativecommons.org/ns#"
   xmlns:rdf="http://www.w3.org/1999/02/22-rdf-syntax-ns#"
   xmlns:svg="http://www.w3.org/2000/svg"
   xmlns="http://www.w3.org/2000/svg"
   xmlns:sodipodi="http://sodipodi.sourceforge.net/DTD/sodipodi-0.dtd"
   xmlns:inkscape="http://www.inkscape.org/namespaces/inkscape"
   version="1.1"
   id="Layer_1"
   x="0px"
   y="0px"
   viewBox="0 0 1366 768"
   style="enable-background:new 0 0 1366 768;"
   xml:space="preserve"
   sodipodi:docname="LSlogoLeft.svg"
   inkscape:version="0.92.4 (5da689c313, 2019-01-14)"><metadata
   id="metadata1066"><rdf:RDF><cc:Work
       rdf:about=""><dc:format>image/svg+xml</dc:format><dc:type
         rdf:resource="http://purl.org/dc/dcmitype/StillImage" /></cc:Work></rdf:RDF></metadata><defs
   id="defs1064" /><sodipodi:namedview
   pagecolor="#ffffff"
   bordercolor="#666666"
   borderopacity="1"
   objecttolerance="10"
   gridtolerance="10"
   guidetolerance="10"
   inkscape:pageopacity="0"
   inkscape:pageshadow="2"
   inkscape:window-width="1920"
   inkscape:window-height="1001"
   id="namedview1062"
   showgrid="false"
   inkscape:zoom="4.1903367"
   inkscape:cx="695.02651"
   inkscape:cy="402.78522"
   inkscape:window-x="-9"
   inkscape:window-y="-9"
   inkscape:window-maximized="1"
   inkscape:current-layer="Layer_1" />
<style
   type="text/css"
   id="style996">
	.st0{fill:#CE9E62;}
	.st1{fill:none;stroke:#CE9E62;stroke-miterlimit:10;}
</style>
<g
   id="g858"
   style="stroke-width:1.75748031;stroke-miterlimit:10;stroke-dasharray:none">
	<path
   id="path856"
   class="st0"
   d="M762,249.9l0.4,8.4l0.3,8.4l0.6,16.9v33.8v67.5v67.5v33.8c-0.4,11.3-0.7,22.5-1.3,33.8   c-0.5-11.3-0.8-22.5-1.3-33.8v-33.8v-67.5v-67.5v-33.8l0.6-16.9l0.3-8.4L762,249.9z"
   style="stroke-width:1.75748031;stroke-miterlimit:10;stroke-dasharray:none" />
</g><g
   id="g950">
	<path
   style="fill:#ce9e62"
   d="m 760.8,493 -4,-78.5 6.4,78.3 z"
   id="polygon948" />
</g><g
   id="g946">
	<path
   style="fill:#ce9e62"
   d="m 760.8,493.1 -9.2,-76 11.6,75.6 z"
   id="polygon944" />
</g><g
   id="g942">
	<path
   style="fill:#ce9e62"
   d="m 760.8,493.1 -14,-73.6 16.4,73.1 z"
   id="polygon940" />
</g><g
   id="g938">
	<path
   style="fill:#ce9e62"
   d="m 760.8,493.2 -19.6,-70.9 22,70.2 z"
   id="polygon936" />
</g><g
   id="g870">
	<path
   style="fill:#ce9e62"
   d="m 736.3,424.9 25.7,68 -28,-67.1 z"
   id="polygon868" />
</g><g
   id="g878">
	<path
   style="fill:#ce9e62"
   d="M 762.6,413 690,447.9 761.4,410.8 Z"
   id="polygon876" />
</g><g
   id="g918">
	<path
   style="fill:#ce9e62"
   d="M 689.2,446.9 749,397.4 690.8,448.8 Z"
   id="polygon916" />
</g><g
   id="g934">
	<path
   style="fill:#ce9e62"
   d="m 689.1,447 57.3,-53.1 -55.5,54.9 z"
   id="polygon932" />
</g><g
   id="g930">
	<path
   style="fill:#ce9e62"
   d="m 689.1,447 55.5,-57.6 -53.7,59.3 z"
   id="polygon928" />
</g><g
   id="g926">
	<path
   style="fill:#ce9e62"
   d="m 689,447.1 54,-62.2 -52,63.8 z"
   id="polygon924" />
</g><g
   id="g922">
	<path
   style="fill:#ce9e62"
   d="M 689,447.1 739.4,384.9 691,448.7 Z"
   id="polygon920" />
</g><g
   id="g886">
	<path
   style="fill:#ce9e62"
   d="m 689.7,446.3 44.2,-61.4 -42.2,62.8 z"
   id="polygon884" />
</g><g
   id="g894">
	<path
   style="fill:#ce9e62"
   d="M 609.3,383.7 715.9,411.6 608.7,386.1 Z"
   id="polygon892" />
</g><g
   id="g862">
	<path
   style="fill:#ce9e62"
   d="m 609,383.6 135,1.3 -135,1.2 z"
   id="polygon860" />
</g><g
   id="g914">
	<path
   style="fill:#ce9e62"
   d="m 611,383.6 121.6,-5.1 -121.4,7.6 z"
   id="polygon912" />
</g><g
   id="g910">
	<path
   style="fill:#ce9e62"
   d="m 609.7,383.6 119.9,-9.8 -119.7,12.3 z"
   id="polygon908" />
</g><g
   id="g906">
	<path
   style="fill:#ce9e62"
   d="m 609.8,383.7 115.8,-15.6 -115.4,18 z"
   id="polygon904" />
</g><g
   id="g902">
	<path
   style="fill:#ce9e62"
   d="M 610,383.2 720.6,362.5 610.4,385.6 Z"
   id="polygon900" />
</g><g
   id="g890">
	<path
   style="fill:#ce9e62"
   d="M 610,383.3 717.2,357.8 610.6,385.7 Z"
   id="polygon888" />
</g><g
   id="g882">
	<path
   id="polygon880"
   class="st0"
   d="M692.9,322.9c0.5-0.4,1.3-0.3,1.7,0.3l42.1,60.9l-44.1-59.6   C692.3,324,692.4,323.3,692.9,322.9L692.9,322.9z" />
</g><g
   id="g954">
	<path
   style="fill:#ce9e62"
   d="m 690.8,320.9 58.3,51.4 -59.9,-49.5 z"
   id="polygon952" />
</g><g
   id="g958">
	<path
   style="fill:#ce9e62"
   d="M 690.8,320.9 753,369.3 689.2,322.9 Z"
   id="polygon956" />
</g><g
   id="g962">
	<path
   style="fill:#ce9e62"
   d="m 690.7,320.9 66.7,46.6 -68.1,-44.6 z"
   id="polygon960" />
</g><g
   id="g966">
	<path
   style="fill:#ce9e62"
   d="M 690.6,320.8 762,365.3 689.4,323 Z"
   id="polygon964" />
</g><g
   id="g970">
	<path
   style="fill:#ce9e62"
   d="M 690.5,320.8 761.9,361.9 689.3,323 Z"
   id="polygon968" />
</g><g
   id="g874">
	<path
   style="fill:#ce9e62"
   d="m 691.6,321.2 70.2,36.9 -71.5,-34.7 z"
   id="polygon872" />
</g><g
   id="g866">
	<path
   style="fill:#ce9e62"
   d="m 763.2,277.4 -28.1,67 25.7,-68 z"
   id="polygon864" />
</g>


































<path
   id="path972"
   class="st1"
   d="M754.4,276.8c0-3.7,3-6.7,6.8-6.7" /><path
   id="path974"
   class="st1"
   d="M754.4,276.8c0,3.9,3,7,6.8,7" /><path
   id="path976"
   class="st1"
   d="M755.1,492c0-3.7,3-6.7,6.8-6.7" /><path
   id="path978"
   class="st1"
   d="M755.1,492c0,3.9,3,7,6.8,7" /><path
   id="path896"
   class="st1"
   d="M744,384.9c0-9.9,8.1-18,18-18"
   style="stroke-width:1.75748031;stroke-miterlimit:10;stroke-dasharray:none" /><path
   id="path898"
   class="st1"
   d="M744,384.9c0,9.9,8.1,18,18,18"
   style="stroke-width:1.75748031;stroke-miterlimit:10;stroke-dasharray:none" /><path
   style="fill:none;stroke:#ce9e62;stroke-miterlimit:10"
   d="m 613.80001,384.79999 a 4.5999999,4.8000002 0 0 1 -4.6,4.8 4.5999999,4.8000002 0 0 1 -4.6,-4.8 4.5999999,4.8000002 0 0 1 4.6,-4.8 4.5999999,4.8000002 0 0 1 4.6,4.8 z"
   id="ellipse980" /></svg>