<?xml version="1.0" encoding="UTF-8" standalone="no"?>
<!-- Generator: Adobe Illustrator 23.0.1, SVG Export Plug-In . SVG Version: 6.00 Build 0)  -->

<svg
   xmlns:dc="http://purl.org/dc/elements/1.1/"
   xmlns:cc="http://creativecommons.org/ns#"
   xmlns:rdf="http://www.w3.org/1999/02/22-rdf-syntax-ns#"
   xmlns:svg="http://www.w3.org/2000/svg"
   xmlns="http://www.w3.org/2000/svg"
   xmlns:sodipodi="http://sodipodi.sourceforge.net/DTD/sodipodi-0.dtd"
   xmlns:inkscape="http://www.inkscape.org/namespaces/inkscape"
   version="1.1"
   id="svg21966"
   inkscape:version="0.92.4 (5da689c313, 2019-01-14)"
   sodipodi:docname="LSlogo.svg"
   x="0px"
   y="0px"
   viewBox="0 0 900.30018 530.9"
   xml:space="preserve"
   width="900.30005"
   height="530.90002"><metadata
   id="metadata1311"><rdf:RDF><cc:Work
       rdf:about=""><dc:format>image/svg+xml</dc:format><dc:type
         rdf:resource="http://purl.org/dc/dcmitype/StillImage" /><dc:title></dc:title></cc:Work></rdf:RDF></metadata><defs
   id="defs1309" />
<style
   type="text/css"
   id="style1204">
	.st0{fill:none;stroke:#CE9E62;stroke-width:1.5;}
	.st1{fill:#CE9E62;}
	.st2{fill:none;stroke:#CE9E62;stroke-miterlimit:10;}
</style>
<sodipodi:namedview
   bordercolor="#666666"
   borderopacity="1.0"
   id="base"
   inkscape:current-layer="layer1"
   inkscape:cx="507.53213"
   inkscape:cy="187.08392"
   inkscape:document-units="mm"
   inkscape:pageopacity="0.0"
   inkscape:pageshadow="2"
   inkscape:window-height="1001"
   inkscape:window-maximized="1"
   inkscape:window-width="1920"
   inkscape:window-x="-9"
   inkscape:window-y="-9"
   inkscape:zoom="0.7"
   pagecolor="#ffffff"
   showgrid="false">
	</sodipodi:namedview>
<g
   id="layer1"
   inkscape:groupmode="layer"
   inkscape:label="Layer 1"
   transform="translate(0,-311.00008)">
	<g
   id="flowRoot21968"
   transform="matrix(0.38270172,0,0,0.49884756,15.598473,-26.492804)"
   style="stroke:#ce9262;stroke-width:6.71386957;stroke-miterlimit:4;stroke-dasharray:none;stroke-opacity:1">
		<path
   id="path22536"
   inkscape:connector-curvature="0"
   class="st0"
   d="M 847,1026.8 H 735.7 V 850.9 h 23.4 V 1006 H 847 Z"
   style="fill:none;stroke:#ce9262;stroke-width:6.71386957;stroke-miterlimit:4;stroke-dasharray:none;stroke-opacity:1" />
		<path
   id="path22538"
   inkscape:connector-curvature="0"
   class="st0"
   d="m 979,963.1 h -97.2 c 0,8.1 1.2,15.2 3.7,21.3 2.4,6 5.8,10.9 10,14.8 4.1,3.8 8.9,6.6 14.5,8.5 5.7,1.9 11.9,2.8 18.7,2.8 9,0 18,-1.8 27,-5.3 9.1,-3.6 15.6,-7.2 19.5,-10.6 h 1.2 v 24.2 c -7.5,3.1 -15.1,5.8 -22.9,7.9 -7.8,2.1 -16,3.2 -24.6,3.2 -21.9,0 -39,-5.9 -51.3,-17.7 -12.3,-11.9 -18.4,-28.7 -18.4,-50.6 0,-21.6 5.9,-38.7 17.6,-51.4 11.8,-12.7 27.3,-19 46.5,-19 17.8,0 31.5,5.2 41.1,15.6 9.7,10.4 14.5,25.2 14.5,44.3 z m -21.6,-17 c -0.1,-11.7 -3,-20.7 -8.9,-27 -5.7,-6.4 -14.5,-9.6 -26.3,-9.6 -11.9,0 -21.4,3.5 -28.5,10.5 -7,7 -11,15.7 -11.9,26.1 z"
   style="fill:none;stroke:#ce9262;stroke-width:6.71386957;stroke-miterlimit:4;stroke-dasharray:none;stroke-opacity:1" />
		<path
   id="path22540"
   inkscape:connector-curvature="0"
   class="st0"
   d="m 1115.2,1026.8 h -22.1 v -14.1 c -2,1.3 -4.6,3.2 -8,5.7 -3.3,2.4 -6.5,4.3 -9.7,5.7 -3.7,1.8 -8,3.3 -12.8,4.5 -4.8,1.3 -10.4,1.9 -16.9,1.9 -11.9,0 -22,-3.9 -30.2,-11.8 -8.3,-7.9 -12.4,-17.9 -12.4,-30.1 0,-10 2.1,-18.1 6.4,-24.2 4.3,-6.2 10.5,-11.1 18.4,-14.6 8,-3.5 17.7,-5.9 28.9,-7.2 11.3,-1.3 23.3,-2.2 36.3,-2.8 v -3.4 c 0,-5 -0.9,-9.2 -2.7,-12.5 -1.7,-3.3 -4.3,-5.9 -7.6,-7.8 -3.1,-1.8 -6.9,-3 -11.3,-3.7 -4.4,-0.6 -9,-0.9 -13.8,-0.9 -5.8,0 -12.3,0.8 -19.5,2.4 -7.2,1.5 -14.6,3.7 -22.2,6.6 h -1.2 v -22.6 c 4.3,-1.2 10.6,-2.5 18.8,-3.9 8.2,-1.4 16.3,-2.1 24.2,-2.1 9.3,0 17.4,0.8 24.2,2.4 6.9,1.5 12.9,4.1 18,7.8 5,3.6 8.7,8.3 11.3,14.1 2.6,5.7 3.9,12.9 3.9,21.4 z m -22.1,-32.5 v -36.7 c -6.8,0.4 -14.8,1 -24,1.8 -9.1,0.8 -16.4,1.9 -21.7,3.4 -6.4,1.8 -11.5,4.6 -15.5,8.5 -3.9,3.8 -5.9,9 -5.9,15.7 0,7.6 2.3,13.3 6.9,17.1 4.6,3.8 11.5,5.7 20.9,5.7 7.8,0 14.9,-1.5 21.4,-4.5 6.4,-3.1 12.4,-6.7 17.9,-11 z"
   style="fill:none;stroke:#ce9262;stroke-width:6.71386957;stroke-miterlimit:4;stroke-dasharray:none;stroke-opacity:1" />
		<path
   id="path22542"
   inkscape:connector-curvature="0"
   class="st0"
   d="M 1265.2,1026.8 H 1243 V 1013 c -6.4,5.5 -13,9.8 -20,12.9 -6.9,3.1 -14.4,4.6 -22.6,4.6 -15.7,0 -28.3,-6.1 -37.6,-18.2 -9.2,-12.1 -13.8,-28.9 -13.8,-50.4 0,-11.2 1.6,-21.1 4.7,-29.9 3.2,-8.7 7.6,-16.2 13,-22.3 5.4,-6 11.6,-10.6 18.7,-13.7 7.2,-3.1 14.6,-4.7 22.2,-4.7 6.9,0 13.1,0.7 18.4,2.2 5.4,1.4 11,3.7 16.9,6.7 V 843 h 22.2 z M 1243,994.3 v -75.7 c -6,-2.7 -11.3,-4.5 -16.1,-5.6 -4.7,-1 -9.9,-1.5 -15.5,-1.5 -12.4,0 -22.1,4.3 -29.1,13 -6.9,8.7 -10.4,20.9 -10.4,36.9 0,15.7 2.7,27.6 8,35.8 5.4,8.1 13.9,12.2 25.7,12.2 6.3,0 12.7,-1.4 19.1,-4.1 6.7,-2.9 12.7,-6.6 18.3,-11 z"
   style="fill:none;stroke:#ce9262;stroke-width:6.71386957;stroke-miterlimit:4;stroke-dasharray:none;stroke-opacity:1" />
		<path
   id="path22544"
   inkscape:connector-curvature="0"
   class="st0"
   d="m 1419.3,963.1 h -97.2 c 0,8.1 1.2,15.2 3.7,21.3 2.4,6 5.8,10.9 10,14.8 4.1,3.8 8.9,6.6 14.5,8.5 5.7,1.9 11.9,2.8 18.7,2.8 9,0 18,-1.8 27,-5.3 9.1,-3.6 15.6,-7.2 19.5,-10.6 h 1.2 v 24.2 c -7.5,3.1 -15.1,5.8 -22.9,7.9 -7.8,2.1 -16,3.2 -24.6,3.2 -21.9,0 -39,-5.9 -51.3,-17.7 -12.3,-11.9 -18.4,-28.7 -18.4,-50.6 0,-21.6 5.9,-38.7 17.6,-51.4 11.8,-12.7 27.3,-19 46.5,-19 17.8,0 31.5,5.2 41.1,15.6 9.7,10.4 14.5,25.2 14.5,44.3 z m -21.6,-17 c -0.1,-11.7 -3,-20.7 -8.9,-27 -5.7,-6.4 -14.5,-9.6 -26.3,-9.6 -11.9,0 -21.4,3.5 -28.5,10.5 -7,7 -11,15.7 -11.9,26.1 z"
   style="fill:none;stroke:#ce9262;stroke-width:6.71386957;stroke-miterlimit:4;stroke-dasharray:none;stroke-opacity:1" />
		<path
   id="path22546"
   inkscape:connector-curvature="0"
   class="st0"
   d="m 1535.3,919.1 h -1.2 c -3.3,-0.8 -6.5,-1.3 -9.7,-1.7 -3.1,-0.4 -6.7,-0.6 -11,-0.6 -6.9,0 -13.5,1.5 -19.8,4.6 -6.4,3 -12.5,6.9 -18.4,11.7 v 93.7 H 1453 V 894.9 h 22.2 v 19.5 c 8.8,-7.1 16.6,-12.1 23.3,-15 6.8,-3 13.7,-4.5 20.7,-4.5 3.9,0 6.7,0.1 8.4,0.4 1.7,0.2 4.3,0.5 7.8,1.1 z"
   style="fill:none;stroke:#ce9262;stroke-width:6.71386957;stroke-miterlimit:4;stroke-dasharray:none;stroke-opacity:1" />
		<path
   id="path22548"
   inkscape:connector-curvature="0"
   class="st0"
   d="m 1650.7,988.8 c 0,12 -5,21.9 -15,29.6 -9.9,7.7 -23.5,11.6 -40.7,11.6 -9.8,0 -18.7,-1.1 -26.9,-3.4 -8.1,-2.4 -14.9,-4.9 -20.4,-7.7 V 994 h 1.2 c 7,5.3 14.8,9.5 23.4,12.6 8.6,3.1 16.8,4.6 24.7,4.6 9.8,0 17.4,-1.6 22.9,-4.7 5.5,-3.1 8.3,-8.1 8.3,-14.9 0,-5.2 -1.5,-9.1 -4.5,-11.8 -3,-2.7 -8.7,-5 -17.2,-6.9 -3.1,-0.7 -7.3,-1.5 -12.4,-2.5 -5,-0.9 -9.6,-2 -13.8,-3.1 -11.6,-3.1 -19.8,-7.6 -24.7,-13.5 -4.8,-6 -7.2,-13.3 -7.2,-22 0,-5.4 1.1,-10.6 3.3,-15.4 2.3,-4.8 5.7,-9.1 10.3,-12.9 4.4,-3.7 10,-6.6 16.8,-8.7 6.9,-2.2 14.5,-3.3 22.9,-3.3 7.9,0 15.8,1 23.9,3 8.1,1.9 14.8,4.2 20.2,7 v 23.7 h -1.2 c -5.7,-4.2 -12.6,-7.7 -20.7,-10.5 -8.1,-2.9 -16.1,-4.4 -23.9,-4.4 -8.1,0 -15,1.6 -20.6,4.7 -5.6,3.1 -8.4,7.7 -8.4,13.8 0,5.4 1.7,9.5 5.1,12.3 3.3,2.8 8.7,5 16.1,6.7 4.1,0.9 8.7,1.9 13.7,2.8 5.1,0.9 9.4,1.8 12.8,2.6 10.3,2.4 18.3,6.4 23.9,12.2 5.3,6 8.1,13.8 8.1,23.4 z"
   style="fill:none;stroke:#ce9262;stroke-width:6.71386957;stroke-miterlimit:4;stroke-dasharray:none;stroke-opacity:1" />
		<path
   id="path22550"
   inkscape:connector-curvature="0"
   class="st0"
   d="m 1792.9,1026.8 h -22.2 v -75.1 c 0,-6.1 -0.4,-11.7 -1.1,-17 -0.7,-5.4 -2,-9.5 -3.9,-12.5 -2,-3.3 -4.8,-5.7 -8.5,-7.3 -3.7,-1.7 -8.5,-2.5 -14.4,-2.5 -6.1,0 -12.4,1.5 -19,4.5 -6.6,3 -13,6.8 -19,11.5 v 98.5 h -22.2 V 843 h 22.2 v 66.5 c 6.9,-5.7 14.1,-10.2 21.5,-13.5 7.4,-3.2 15,-4.8 22.8,-4.8 14.3,0 25.1,4.3 32.6,12.9 7.5,8.6 11.2,20.9 11.2,37.1 z"
   style="fill:none;stroke:#ce9262;stroke-width:6.71386957;stroke-miterlimit:4;stroke-dasharray:none;stroke-opacity:1" />
		<path
   id="path22552"
   inkscape:connector-curvature="0"
   class="st0"
   d="m 1859.5,872.8 h -25 v -23 h 25 z m -1.4,154 h -22.2 V 894.9 h 22.2 z"
   style="fill:none;stroke:#ce9262;stroke-width:6.71386957;stroke-miterlimit:4;stroke-dasharray:none;stroke-opacity:1" />
		<path
   id="path22554"
   inkscape:connector-curvature="0"
   class="st0"
   d="m 2018.4,959.2 c 0,10.7 -1.5,20.5 -4.6,29.4 -3.1,8.8 -7.4,16.3 -13,22.4 -5.2,5.8 -11.3,10.4 -18.4,13.6 -7,3.1 -14.4,4.7 -22.3,4.7 -6.9,0 -13.1,-0.7 -18.7,-2.2 -5.5,-1.5 -11.1,-3.8 -16.9,-7 v 55.3 h -22.2 V 894.9 h 22.2 v 13.8 c 5.9,-5 12.5,-9.1 19.8,-12.4 7.4,-3.4 15.3,-5.1 23.6,-5.1 15.9,0 28.3,6 37.1,18.1 8.9,11.9 13.4,28.6 13.4,49.9 z m -22.9,0.6 c 0,-15.9 -2.7,-27.8 -8.1,-35.7 -5.4,-7.9 -13.8,-11.8 -25,-11.8 -6.4,0 -12.8,1.4 -19.3,4.1 -6.5,2.7 -12.6,6.4 -18.5,10.9 v 74.8 c 6.3,2.8 11.7,4.8 16.2,5.8 4.6,1 9.7,1.5 15.5,1.5 12.4,0 22,-4.2 28.9,-12.5 6.8,-8.3 10.3,-20.7 10.3,-37.1 z"
   style="fill:none;stroke:#ce9262;stroke-width:6.71386957;stroke-miterlimit:4;stroke-dasharray:none;stroke-opacity:1" />
		<path
   id="path22556"
   inkscape:connector-curvature="0"
   class="st0"
   d="m 863.5,1279 c 0,6.9 -1.6,13.6 -4.8,20.3 -3.1,6.7 -7.6,12.4 -13.3,17 -6.3,5 -13.7,9 -22.1,11.8 -8.3,2.8 -18.4,4.3 -30.2,4.3 -12.7,0 -24.1,-1.2 -34.3,-3.5 -10.1,-2.4 -20.4,-5.9 -30.8,-10.5 V 1289 h 1.7 c 8.9,7.4 19.2,13.1 30.8,17.1 11.7,4 22.6,6 32.8,6 14.5,0 25.7,-2.7 33.8,-8.1 8.1,-5.4 12.2,-12.7 12.2,-21.7 0,-7.8 -1.9,-13.5 -5.8,-17.2 -3.8,-3.7 -9.6,-6.6 -17.4,-8.6 -5.9,-1.6 -12.3,-2.9 -19.3,-3.9 -6.9,-1 -14.1,-2.3 -21.9,-3.9 -15.6,-3.3 -27.2,-8.9 -34.7,-16.9 -7.5,-8 -11.2,-18.5 -11.2,-31.3 0,-14.7 6.2,-26.8 18.7,-36.1 12.4,-9.4 28.2,-14.2 47.4,-14.2 12.4,0 23.7,1.2 34,3.5 10.3,2.4 19.4,5.3 27.4,8.7 v 27.6 h -1.7 c -6.7,-5.7 -15.5,-10.4 -26.5,-14.1 -10.9,-3.8 -22,-5.7 -33.4,-5.7 -12.5,0 -22.6,2.6 -30.2,7.8 -7.6,5.2 -11.3,11.9 -11.3,20.1 0,7.3 1.9,13.1 5.7,17.2 3.8,4.2 10.4,7.4 20,9.6 5,1.1 12.2,2.4 21.5,4 9.3,1.6 17.2,3.2 23.6,4.8 13.1,3.5 22.9,8.7 29.5,15.7 6.5,7.2 9.8,17 9.8,29.6 z"
   style="fill:none;stroke:#ce9262;stroke-width:6.71386957;stroke-miterlimit:4;stroke-dasharray:none;stroke-opacity:1" />
		<path
   id="path22558"
   inkscape:connector-curvature="0"
   class="st0"
   d="m 1008.7,1329.2 h -22.2 v -14.6 c -7.5,5.9 -14.6,10.4 -21.5,13.6 -6.9,3.1 -14.4,4.7 -22.7,4.7 -13.9,0 -24.6,-4.2 -32.4,-12.6 -7.7,-8.5 -11.6,-20.9 -11.6,-37.3 v -85.6 h 22.2 v 75.1 c 0,6.7 0.3,12.4 0.9,17.2 0.6,4.7 2,8.8 4,12.2 2.1,3.5 4.9,6 8.3,7.6 3.4,1.6 8.3,2.4 14.8,2.4 5.7,0 12,-1.5 18.8,-4.5 6.9,-3 13.2,-6.8 19.1,-11.5 v -98.5 h 22.2 v 131.8 z"
   style="fill:none;stroke:#ce9262;stroke-width:6.71386957;stroke-miterlimit:4;stroke-dasharray:none;stroke-opacity:1" />
		<path
   id="path22560"
   inkscape:connector-curvature="0"
   class="st0"
   d="m 1244.9,1329.2 h -22.2 V 1254 c 0,-5.7 -0.3,-11.1 -0.8,-16.4 -0.5,-5.3 -1.5,-9.5 -3.2,-12.6 -1.8,-3.4 -4.4,-5.9 -7.8,-7.7 -3.4,-1.7 -8.3,-2.6 -14.6,-2.6 -6.2,0 -12.4,1.6 -18.7,4.7 -6.2,3.1 -12.4,7 -18.7,11.8 0.2,1.8 0.4,3.9 0.6,6.4 0.2,2.4 0.2,4.7 0.2,7.1 v 84.4 h -22.2 V 1254 c 0,-5.8 -0.3,-11.3 -0.8,-16.5 -0.5,-5.3 -1.5,-9.5 -3.2,-12.6 -1.8,-3.4 -4.4,-5.9 -7.8,-7.6 -3.4,-1.7 -8.3,-2.6 -14.6,-2.6 -6.1,0 -12.2,1.5 -18.3,4.5 -6.1,3 -12.1,6.8 -18.2,11.5 v 98.5 h -22.2 v -131.9 h 22.2 v 14.6 c 6.9,-5.7 13.8,-10.2 20.7,-13.5 6.9,-3.2 14.3,-4.8 22.1,-4.8 9,0 16.6,1.9 22.8,5.7 6.3,3.8 11,9 14.1,15.7 9,-7.6 17.2,-13 24.6,-16.3 7.4,-3.4 15.3,-5.1 23.7,-5.1 14.5,0 25.2,4.4 32,13.2 6.9,8.7 10.4,21 10.4,36.7 z"
   style="fill:none;stroke:#ce9262;stroke-width:6.71386957;stroke-miterlimit:4;stroke-dasharray:none;stroke-opacity:1" />
		<path
   id="path22562"
   inkscape:connector-curvature="0"
   class="st0"
   d="M 1480.2,1329.2 H 1458 V 1254 c 0,-5.7 -0.3,-11.1 -0.8,-16.4 -0.5,-5.3 -1.5,-9.5 -3.2,-12.6 -1.8,-3.4 -4.4,-5.9 -7.8,-7.7 -3.4,-1.7 -8.3,-2.6 -14.6,-2.6 -6.2,0 -12.4,1.6 -18.7,4.7 -6.2,3.1 -12.4,7 -18.7,11.8 0.2,1.8 0.4,3.9 0.6,6.4 0.2,2.4 0.2,4.7 0.2,7.1 v 84.4 h -22.2 V 1254 c 0,-5.8 -0.3,-11.3 -0.8,-16.5 -0.5,-5.3 -1.5,-9.5 -3.2,-12.6 -1.8,-3.4 -4.4,-5.9 -7.8,-7.6 -3.4,-1.7 -8.3,-2.6 -14.6,-2.6 -6.1,0 -12.2,1.5 -18.3,4.5 -6.1,3 -12.1,6.8 -18.2,11.5 v 98.5 h -22.2 v -131.9 h 22.2 v 14.6 c 6.9,-5.7 13.8,-10.2 20.7,-13.5 6.9,-3.2 14.3,-4.8 22.1,-4.8 9,0 16.6,1.9 22.8,5.7 6.3,3.8 11,9 14.1,15.7 9,-7.6 17.2,-13 24.6,-16.3 7.4,-3.4 15.3,-5.1 23.7,-5.1 14.5,0 25.2,4.4 32,13.2 6.9,8.7 10.4,21 10.4,36.7 z"
   style="fill:none;stroke:#ce9262;stroke-width:6.71386957;stroke-miterlimit:4;stroke-dasharray:none;stroke-opacity:1" />
		<path
   id="path22564"
   inkscape:connector-curvature="0"
   class="st0"
   d="m 1546.8,1175.1 h -25 v -23 h 25 z m -1.4,154.1 h -22.2 v -131.9 h 22.2 z"
   style="fill:none;stroke:#ce9262;stroke-width:6.71386957;stroke-miterlimit:4;stroke-dasharray:none;stroke-opacity:1" />
		<path
   id="path22566"
   inkscape:connector-curvature="0"
   class="st0"
   d="m 1658,1328 c -4.2,1.1 -8.7,2 -13.7,2.7 -4.9,0.7 -9.3,1.1 -13.1,1.1 -13.5,0 -23.7,-3.6 -30.7,-10.9 -7,-7.3 -10.5,-18.9 -10.5,-34.8 v -70.2 h -15 v -18.7 h 15 v -37.9 h 22.2 v 37.9 h 45.8 v 18.7 h -45.8 v 60.1 c 0,6.9 0.2,12.4 0.5,16.3 0.3,3.9 1.4,7.5 3.3,10.9 1.7,3.1 4.1,5.5 7.1,7 3.1,1.4 7.7,2.1 13.9,2.1 3.6,0 7.4,-0.5 11.3,-1.5 3.9,-1.1 6.8,-2 8.5,-2.7 h 1.2 z"
   style="fill:none;stroke:#ce9262;stroke-width:6.71386957;stroke-miterlimit:4;stroke-dasharray:none;stroke-opacity:1" />
		<path
   id="path22568"
   inkscape:connector-curvature="0"
   class="st0"
   d="m 1793.7,1145.4 -5.1,68.4 h -16.1 l -5.1,-68.4 z"
   style="fill:none;stroke:#ce9262;stroke-width:6.71386957;stroke-miterlimit:4;stroke-dasharray:none;stroke-opacity:1" />
		<path
   id="path22570"
   inkscape:connector-curvature="0"
   class="st0"
   d="m 1941.4,1329.2 h -95.2 v -18 h 36.6 v -117.9 h -36.6 v -16.1 c 5,0 10.3,-0.4 15.9,-1.2 5.7,-0.9 10,-2.1 12.9,-3.7 3.6,-2 6.5,-4.4 8.5,-7.4 2.1,-3.1 3.3,-7.2 3.7,-12.3 h 18.3 v 158.5 h 35.9 z"
   style="fill:none;stroke:#ce9262;stroke-width:6.71386957;stroke-miterlimit:4;stroke-dasharray:none;stroke-opacity:1" />
		<path
   id="path22572"
   inkscape:connector-curvature="0"
   class="st0"
   d="m 2105.2,1230.7 c 0,15.4 -1.8,29.3 -5.3,41.8 -3.5,12.5 -8.7,23.2 -15.8,32 -7.2,9 -16.1,15.9 -26.9,20.8 -10.8,4.9 -23.5,7.3 -38,7.3 -4.1,0 -8,-0.2 -11.6,-0.7 -3.6,-0.4 -6.9,-1.1 -9.7,-2 v -22.6 h 1.2 c 2.3,1.2 5.5,2.3 9.7,3.4 4.2,1 8.8,1.5 13.9,1.5 17.4,0 31,-5.2 40.9,-15.6 9.9,-10.5 15.7,-24.9 17.2,-43.2 -7.3,4.4 -14.2,7.6 -20.7,9.4 -6.5,1.9 -13.5,2.8 -21.1,2.8 -7.2,0 -13.8,-0.7 -19.7,-2.1 -5.8,-1.4 -11.7,-4.2 -17.6,-8.3 -6.9,-4.8 -12.2,-10.9 -15.7,-18.3 -3.5,-7.4 -5.2,-16.3 -5.2,-26.6 0,-18 5.9,-32.6 17.7,-43.8 11.8,-11.3 26.2,-16.9 43.2,-16.9 8.5,0 16.4,1.3 23.6,4 7.2,2.6 13.6,6.5 19,11.8 6.7,6.5 11.9,15 15.5,25.3 3.6,10.4 5.4,23.7 5.4,40 z m -23.9,-5.1 c 0,-12.2 -1.3,-22 -3.8,-29.4 -2.5,-7.4 -6,-13.1 -10.4,-17.2 -3.7,-3.5 -7.7,-6.1 -11.9,-7.6 -4.3,-1.6 -8.9,-2.4 -13.8,-2.4 -11.3,0 -20.3,3.5 -26.9,10.6 -6.5,7.1 -9.8,17 -9.8,29.9 0,7.5 1.1,13.6 3.2,18.3 2.1,4.7 5.7,8.9 10.7,12.4 3.5,2.4 7.4,4.1 11.7,5 4.3,0.8 9,1.2 14.2,1.2 6.1,0 12.4,-0.8 18.7,-2.5 6.3,-1.7 12.2,-4.1 17.7,-7.2 0.1,-1.7 0.2,-3.3 0.2,-4.8 0.2,-1.7 0.2,-3.8 0.2,-6.3 z"
   style="fill:none;stroke:#ce9262;stroke-width:6.71386957;stroke-miterlimit:4;stroke-dasharray:none;stroke-opacity:1" />
		<path
   id="path22574"
   inkscape:connector-curvature="0"
   class="st0"
   d="M 805.3,1451.8 H 766 v 96.9 h -14.6 v -96.9 h -39.3 v -13 h 93.2 z"
   style="fill:none;stroke:#ce9262;stroke-width:6.71386957;stroke-miterlimit:4;stroke-dasharray:none;stroke-opacity:1" />
		<path
   id="path22576"
   inkscape:connector-curvature="0"
   class="st0"
   d="m 888,1548.8 h -13.9 v -46.9 c 0,-3.8 -0.2,-7.3 -0.7,-10.6 -0.4,-3.3 -1.3,-6 -2.4,-7.8 -1.2,-2.1 -3,-3.6 -5.3,-4.6 -2.3,-1 -5.3,-1.6 -9,-1.6 -3.8,0 -7.8,0.9 -11.9,2.8 -4.1,1.9 -8.1,4.3 -11.9,7.2 v 61.6 H 819 V 1434 h 13.9 v 41.6 c 4.3,-3.6 8.8,-6.4 13.4,-8.4 4.6,-2 9.4,-3 14.2,-3 8.9,0 15.7,2.7 20.4,8 4.7,5.4 7,13.1 7,23.2 z"
   style="fill:none;stroke:#ce9262;stroke-width:6.71386957;stroke-miterlimit:4;stroke-dasharray:none;stroke-opacity:1" />
		<path
   id="path22578"
   inkscape:connector-curvature="0"
   class="st0"
   d="M 983.7,1509 H 923 c 0,5.1 0.8,9.5 2.3,13.3 1.5,3.7 3.6,6.8 6.3,9.2 2.6,2.4 5.6,4.1 9.1,5.3 3.5,1.2 7.4,1.8 11.7,1.8 5.6,0 11.2,-1.1 16.9,-3.3 5.7,-2.3 9.8,-4.5 12.2,-6.6 h 0.7 v 15.1 c -4.7,2 -9.4,3.6 -14.3,4.9 -4.9,1.3 -10,2 -15.4,2 -13.7,0 -24.4,-3.7 -32,-11.1 -7.7,-7.4 -11.5,-18 -11.5,-31.6 0,-13.5 3.7,-24.2 11,-32.1 7.4,-7.9 17.1,-11.9 29.1,-11.9 11.1,0 19.7,3.2 25.7,9.7 6.1,6.5 9.1,15.7 9.1,27.7 z m -13.5,-10.6 c 0,-7.3 -1.9,-12.9 -5.5,-16.9 -3.6,-4 -9.1,-6 -16.5,-6 -7.4,0 -13.4,2.2 -17.8,6.6 -4.4,4.4 -6.9,9.8 -7.5,16.3 z"
   style="fill:none;stroke:#ce9262;stroke-width:6.71386957;stroke-miterlimit:4;stroke-dasharray:none;stroke-opacity:1" />
		<path
   id="path22580"
   inkscape:connector-curvature="0"
   class="st0"
   d="m 1097.8,1548.8 h -43.4 v -11.2 h 14.4 v -87.5 h -14.4 v -11.2 h 43.4 v 11.2 h -14.4 v 87.5 h 14.4 z"
   style="fill:none;stroke:#ce9262;stroke-width:6.71386957;stroke-miterlimit:4;stroke-dasharray:none;stroke-opacity:1" />
		<path
   id="path22582"
   inkscape:connector-curvature="0"
   class="st0"
   d="m 1190.7,1548.8 h -13.9 v -46.9 c 0,-3.8 -0.2,-7.3 -0.7,-10.6 -0.4,-3.3 -1.3,-6 -2.4,-7.8 -1.2,-2.1 -3,-3.6 -5.3,-4.6 -2.3,-1 -5.3,-1.6 -9,-1.6 -3.8,0 -7.8,0.9 -11.9,2.8 -4.1,1.9 -8.1,4.3 -11.9,7.2 v 61.6 h -13.9 v -82.5 h 13.9 v 9.2 c 4.3,-3.6 8.8,-6.4 13.4,-8.4 4.6,-2 9.4,-3 14.2,-3 8.9,0 15.7,2.7 20.4,8 4.7,5.4 7,13.1 7,23.2 z"
   style="fill:none;stroke:#ce9262;stroke-width:6.71386957;stroke-miterlimit:4;stroke-dasharray:none;stroke-opacity:1" />
		<path
   id="path22584"
   inkscape:connector-curvature="0"
   class="st0"
   d="m 1261.7,1447.3 h -0.7 c -1.5,-0.4 -3.5,-0.9 -6,-1.3 -2.5,-0.5 -4.6,-0.7 -6.5,-0.7 -6,0 -10.3,1.3 -13,4 -2.7,2.6 -4,7.4 -4,14.2 v 2.8 h 25 V 1478 H 1232 v 70.8 h -13.9 V 1478 h -9.4 v -11.7 h 9.4 v -2.7 c 0,-9.8 2.4,-17.3 7.3,-22.5 4.9,-5.3 11.9,-7.9 21.1,-7.9 3.1,0 5.9,0.1 8.3,0.4 2.5,0.3 4.8,0.6 6.9,1 z"
   style="fill:none;stroke:#ce9262;stroke-width:6.71386957;stroke-miterlimit:4;stroke-dasharray:none;stroke-opacity:1" />
		<path
   id="path22586"
   inkscape:connector-curvature="0"
   class="st0"
   d="m 1284.6,1548.8 h -13.9 v -114.9 h 13.9 z"
   style="fill:none;stroke:#ce9262;stroke-width:6.71386957;stroke-miterlimit:4;stroke-dasharray:none;stroke-opacity:1" />
		<path
   id="path22588"
   inkscape:connector-curvature="0"
   class="st0"
   d="m 1381.2,1509 h -60.8 c 0,5.1 0.8,9.5 2.3,13.3 1.5,3.7 3.6,6.8 6.3,9.2 2.6,2.4 5.6,4.1 9.1,5.3 3.5,1.2 7.4,1.8 11.7,1.8 5.6,0 11.2,-1.1 16.9,-3.3 5.7,-2.3 9.8,-4.5 12.2,-6.6 h 0.7 v 15.1 c -4.7,2 -9.4,3.6 -14.3,4.9 -4.9,1.3 -10,2 -15.4,2 -13.7,0 -24.4,-3.7 -32,-11.1 -7.7,-7.4 -11.5,-18 -11.5,-31.6 0,-13.5 3.7,-24.2 11,-32.1 7.4,-7.9 17.1,-11.9 29.1,-11.9 11.1,0 19.7,3.2 25.7,9.7 6.1,6.5 9.1,15.7 9.1,27.7 z m -13.5,-10.6 c 0,-7.3 -1.9,-12.9 -5.5,-16.9 -3.6,-4 -9.1,-6 -16.5,-6 -7.4,0 -13.4,2.2 -17.8,6.6 -4.4,4.4 -6.9,9.8 -7.5,16.3 z"
   style="fill:none;stroke:#ce9262;stroke-width:6.71386957;stroke-miterlimit:4;stroke-dasharray:none;stroke-opacity:1" />
		<path
   id="path22590"
   inkscape:connector-curvature="0"
   class="st0"
   d="m 1473.6,1548.8 h -17.5 l -23.4,-31.7 -23.5,31.7 H 1393 l 32.2,-41.1 -31.9,-41.3 h 17.5 l 23.3,31.2 23.3,-31.2 h 16.2 l -32.4,40.6 z"
   style="fill:none;stroke:#ce9262;stroke-width:6.71386957;stroke-miterlimit:4;stroke-dasharray:none;stroke-opacity:1" />
		<path
   id="path22592"
   inkscape:connector-curvature="0"
   class="st0"
   d="M 1506.6,1452.5 H 1491 v -14.4 h 15.6 z m -0.9,96.3 h -13.9 v -82.5 h 13.9 z"
   style="fill:none;stroke:#ce9262;stroke-width:6.71386957;stroke-miterlimit:4;stroke-dasharray:none;stroke-opacity:1" />
		<path
   id="path22594"
   inkscape:connector-curvature="0"
   class="st0"
   d="m 1603.6,1507.6 c 0,13.4 -3.4,24 -10.3,31.8 -6.9,7.8 -16.1,11.7 -27.7,11.7 -11.7,0 -20.9,-3.9 -27.8,-11.7 -6.8,-7.8 -10.3,-18.4 -10.3,-31.8 0,-13.4 3.4,-24 10.3,-31.8 6.9,-7.8 16.2,-11.7 27.8,-11.7 11.6,0 20.8,3.9 27.7,11.7 6.9,7.7 10.3,18.3 10.3,31.8 z m -14.3,0 c 0,-10.7 -2.1,-18.6 -6.3,-23.8 -4.2,-5.2 -10,-7.8 -17.4,-7.8 -7.5,0 -13.4,2.6 -17.6,7.8 -4.1,5.2 -6.2,13.1 -6.2,23.8 0,10.3 2.1,18.2 6.3,23.5 4.2,5.3 10,8 17.5,8 7.4,0 13.2,-2.6 17.3,-7.9 4.3,-5.3 6.4,-13.2 6.4,-23.6 z"
   style="fill:none;stroke:#ce9262;stroke-width:6.71386957;stroke-miterlimit:4;stroke-dasharray:none;stroke-opacity:1" />
		<path
   id="path22596"
   inkscape:connector-curvature="0"
   class="st0"
   d="m 1694.1,1548.8 h -13.9 v -46.9 c 0,-3.8 -0.2,-7.3 -0.7,-10.6 -0.4,-3.3 -1.3,-6 -2.4,-7.8 -1.2,-2.1 -3,-3.6 -5.3,-4.6 -2.3,-1 -5.3,-1.6 -9,-1.6 -3.8,0 -7.8,0.9 -11.9,2.8 -4.1,1.9 -8.1,4.3 -11.9,7.2 v 61.6 h -13.9 v -82.5 h 13.9 v 9.2 c 4.3,-3.6 8.8,-6.4 13.4,-8.4 4.6,-2 9.4,-3 14.2,-3 8.9,0 15.7,2.7 20.4,8 4.7,5.4 7,13.1 7,23.2 z"
   style="fill:none;stroke:#ce9262;stroke-width:6.71386957;stroke-miterlimit:4;stroke-dasharray:none;stroke-opacity:1" />
		<path
   id="path22598"
   inkscape:connector-curvature="0"
   class="st0"
   d="m 1847,1472.1 c 0,4.9 -0.9,9.4 -2.6,13.6 -1.7,4.1 -4,7.7 -7.1,10.8 -3.8,3.8 -8.3,6.6 -13.4,8.6 -5.2,1.9 -11.7,2.8 -19.6,2.8 h -14.6 v 41 h -14.6 V 1439 h 29.8 c 6.6,0 12.2,0.6 16.8,1.7 4.6,1.1 8.6,2.8 12.2,5.2 4.2,2.8 7.4,6.3 9.7,10.5 2.2,4 3.4,9.3 3.4,15.7 z m -15.2,0.3 c 0,-3.8 -0.7,-7.1 -2,-9.9 -1.3,-2.8 -3.3,-5.1 -6.1,-6.9 -2.4,-1.5 -5.1,-2.6 -8.1,-3.2 -3,-0.7 -6.8,-1 -11.4,-1 h -14.5 v 43.9 h 12.3 c 5.9,0 10.7,-0.5 14.4,-1.6 3.7,-1.1 6.7,-2.8 9,-5.1 2.3,-2.4 3.9,-4.8 4.9,-7.5 1,-2.5 1.5,-5.4 1.5,-8.7 z"
   style="fill:none;stroke:#ce9262;stroke-width:6.71386957;stroke-miterlimit:4;stroke-dasharray:none;stroke-opacity:1" />
		<path
   id="path22600"
   inkscape:connector-curvature="0"
   class="st0"
   d="m 1932,1507.6 c 0,13.4 -3.4,24 -10.3,31.8 -6.9,7.8 -16.1,11.7 -27.7,11.7 -11.7,0 -20.9,-3.9 -27.8,-11.7 -6.8,-7.8 -10.3,-18.4 -10.3,-31.8 0,-13.4 3.4,-24 10.3,-31.8 6.9,-7.8 16.2,-11.7 27.8,-11.7 11.6,0 20.8,3.9 27.7,11.7 6.8,7.7 10.3,18.3 10.3,31.8 z m -14.4,0 c 0,-10.7 -2.1,-18.6 -6.3,-23.8 -4.2,-5.2 -10,-7.8 -17.4,-7.8 -7.5,0 -13.4,2.6 -17.6,7.8 -4.1,5.2 -6.2,13.1 -6.2,23.8 0,10.3 2.1,18.2 6.3,23.5 4.2,5.3 10,8 17.5,8 7.4,0 13.2,-2.6 17.3,-7.9 4.3,-5.3 6.4,-13.2 6.4,-23.6 z"
   style="fill:none;stroke:#ce9262;stroke-width:6.71386957;stroke-miterlimit:4;stroke-dasharray:none;stroke-opacity:1" />
		<path
   id="path22604"
   inkscape:connector-curvature="0"
   class="st0"
   d="m 2064.1,1548.8 h -13.9 v -46.9 c 0,-3.8 -0.2,-7.3 -0.7,-10.6 -0.4,-3.3 -1.3,-6 -2.4,-7.8 -1.2,-2.1 -3,-3.6 -5.3,-4.6 -2.3,-1 -5.3,-1.6 -9,-1.6 -3.8,0 -7.8,0.9 -11.9,2.8 -4.1,1.9 -8.1,4.3 -11.9,7.2 v 61.6 h -13.9 v -82.5 h 13.9 v 9.2 c 4.3,-3.6 8.8,-6.4 13.4,-8.4 4.6,-2 9.4,-3 14.2,-3 8.9,0 15.7,2.7 20.4,8 4.7,5.4 7,13.1 7,23.2 v 53.4 z"
   style="fill:none;stroke:#ce9262;stroke-width:6.71386957;stroke-miterlimit:4;stroke-dasharray:none;stroke-opacity:1" />
		<path
   id="path22606"
   inkscape:connector-curvature="0"
   class="st0"
   d="m 2133.6,1548 c -2.6,0.7 -5.5,1.3 -8.6,1.7 -3.1,0.4 -5.8,0.7 -8.2,0.7 -8.4,0 -14.8,-2.3 -19.2,-6.8 -4.4,-4.5 -6.6,-11.8 -6.6,-21.8 V 1478 h -9.4 v -11.7 h 9.4 v -23.7 h 13.9 v 23.7 h 28.6 V 1478 H 2105 v 37.6 c 0,4.3 0.1,7.7 0.3,10.2 0.2,2.4 0.9,4.7 2.1,6.8 1.1,2 2.6,3.4 4.4,4.4 1.9,0.9 4.8,1.3 8.7,1.3 2.3,0 4.6,-0.3 7.1,-1 2.5,-0.7 4.2,-1.3 5.3,-1.7 h 0.7 z"
   style="fill:none;stroke:#ce9262;stroke-width:6.71386957;stroke-miterlimit:4;stroke-dasharray:none;stroke-opacity:1" />
		<path
   id="path22602"
   inkscape:connector-curvature="0"
   class="st0"
   d="m 1968.4,1452.5 h -15.6 v -14.4 h 15.6 z m -0.9,96.3 h -13.9 v -82.5 h 13.9 z"
   style="fill:none;stroke:#ce9262;stroke-width:6.71386957;stroke-miterlimit:4;stroke-dasharray:none;stroke-opacity:1" />
	</g>
</g>
<g
   id="g858"
   transform="matrix(1.4464318,0,0,1.8854081,15.598473,-337.4929)">
	<path
   id="path856"
   class="st1"
   d="m 167.2,182.7 0.4,8.4 0.3,8.4 0.6,16.9 v 33.8 67.5 67.5 33.8 c -0.4,11.3 -0.7,22.5 -1.3,33.8 -0.5,-11.3 -0.8,-22.5 -1.3,-33.8 v -33.8 -67.5 -67.5 -33.8 l 0.6,-16.9 0.3,-8.4 z"
   inkscape:connector-curvature="0"
   style="fill:#ce9e62" />
</g>
<g
   id="g862"
   transform="matrix(1.4464318,0,0,1.8854081,15.598473,-337.4929)">
	<polygon
   id="polygon860"
   class="st1"
   points="149.2,317.7 14.2,318.9 14.2,316.4 "
   style="fill:#ce9e62" />
</g>
<g
   id="g866"
   transform="matrix(1.4464318,0,0,1.8854081,15.598473,-337.4929)">
	<polygon
   id="polygon864"
   class="st1"
   points="140.3,277.2 166,209.2 168.4,210.2 "
   style="fill:#ce9e62" />
</g>
<g
   id="g870"
   transform="matrix(1.4464318,0,0,1.8854081,15.598473,-337.4929)">
	<polygon
   id="polygon868"
   class="st1"
   points="167.2,425.7 139.2,358.6 141.5,357.7 "
   style="fill:#ce9e62" />
</g>
<g
   id="g874"
   transform="matrix(1.4464318,0,0,1.8854081,15.598473,-337.4929)">
	<polygon
   id="polygon872"
   class="st1"
   points="167,291 95.6,256.2 96.8,254.1 "
   style="fill:#ce9e62" />
</g>
<g
   id="g878"
   transform="matrix(1.4464318,0,0,1.8854081,15.598473,-337.4929)">
	<polygon
   id="polygon876"
   class="st1"
   points="95.2,380.7 166.6,343.6 167.8,345.8 "
   style="fill:#ce9e62" />
</g>
<g
   id="g882"
   transform="matrix(1.4464318,0,0,1.8854081,15.598473,-337.4929)">
	<path
   id="polygon880"
   class="st1"
   d="m 98.2,255.7 c 0.5,-0.4 1.3,-0.3 1.7,0.3 L 142,317 97.9,257.4 c -0.4,-0.5 -0.3,-1.3 0.3,-1.7 z"
   inkscape:connector-curvature="0"
   style="fill:#ce9e62" />
</g>
<g
   id="g886"
   transform="matrix(1.4464318,0,0,1.8854081,15.598473,-337.4929)">
	<polygon
   id="polygon884"
   class="st1"
   points="139.1,317.8 97,380.6 95,379.1 "
   style="fill:#ce9e62" />
</g>
<g
   id="g890"
   transform="matrix(1.4464318,0,0,1.8854081,15.598473,-337.4929)">
	<polygon
   id="polygon888"
   class="st1"
   points="122.5,290.7 15.9,318.6 15.3,316.2 "
   style="fill:#ce9e62" />
</g>
<g
   id="g894"
   transform="matrix(1.4464318,0,0,1.8854081,15.598473,-337.4929)">
	<polygon
   id="polygon892"
   class="st1"
   points="121.1,344.4 13.9,318.9 14.5,316.5 "
   style="fill:#ce9e62" />
</g>
<path
   id="path896"
   class="st2"
   d="m 231.40608,261.50124 c 0,-18.66554 11.71611,-33.93733 26.03579,-33.93733"
   style="fill:none;stroke:#ce9e62;stroke-width:2.27131605;stroke-miterlimit:10;stroke-dasharray:none"
   inkscape:connector-curvature="0" />
<path
   id="path898"
   class="st2"
   d="m 231.40608,261.50124 c 0,18.66554 11.71611,33.93735 26.03579,33.93735"
   style="fill:none;stroke:#ce9e62;stroke-width:2.27131605;stroke-miterlimit:10;stroke-dasharray:none"
   inkscape:connector-curvature="0" />
<g
   id="g902"
   transform="matrix(1.4464318,0,0,1.8854081,15.598473,-337.4929)">
	<polygon
   id="polygon900"
   class="st1"
   points="125.8,295.3 15.6,318.4 15.2,316 "
   style="fill:#ce9e62" />
</g>
<g
   id="g906"
   transform="matrix(1.4464318,0,0,1.8854081,15.598473,-337.4929)">
	<polygon
   id="polygon904"
   class="st1"
   points="130.9,300.9 15.5,318.9 15.1,316.5 "
   style="fill:#ce9e62" />
</g>
<g
   id="g910"
   transform="matrix(1.4464318,0,0,1.8854081,15.598473,-337.4929)">
	<polygon
   id="polygon908"
   class="st1"
   points="134.9,306.7 15.2,318.9 15,316.4 "
   style="fill:#ce9e62" />
</g>
<g
   id="g914"
   transform="matrix(1.4464318,0,0,1.8854081,15.598473,-337.4929)">
	<polygon
   id="polygon912"
   class="st1"
   points="137.8,311.3 16.4,318.9 16.2,316.4 "
   style="fill:#ce9e62" />
</g>
<g
   id="g918"
   transform="matrix(1.4464318,0,0,1.8854081,15.598473,-337.4929)">
	<polygon
   id="polygon916"
   class="st1"
   points="154.2,330.2 96,381.6 94.4,379.7 "
   style="fill:#ce9e62" />
</g>
<g
   id="g922"
   transform="matrix(1.4464318,0,0,1.8854081,15.598473,-337.4929)">
	<polygon
   id="polygon920"
   class="st1"
   points="144.6,317.7 96.2,381.5 94.2,379.9 "
   style="fill:#ce9e62" />
</g>
<g
   id="g926"
   transform="matrix(1.4464318,0,0,1.8854081,15.598473,-337.4929)">
	<polygon
   id="polygon924"
   class="st1"
   points="148.2,317.7 96.2,381.5 94.2,379.9 "
   style="fill:#ce9e62" />
</g>
<g
   id="g930"
   transform="matrix(1.4464318,0,0,1.8854081,15.598473,-337.4929)">
	<polygon
   id="polygon928"
   class="st1"
   points="149.8,322.2 96.1,381.5 94.3,379.8 "
   style="fill:#ce9e62" />
</g>
<g
   id="g934"
   transform="matrix(1.4464318,0,0,1.8854081,15.598473,-337.4929)">
	<polygon
   id="polygon932"
   class="st1"
   points="151.6,326.7 96.1,381.6 94.3,379.8 "
   style="fill:#ce9e62" />
</g>
<g
   id="g938"
   transform="matrix(1.4464318,0,0,1.8854081,15.598473,-337.4929)">
	<polygon
   id="polygon936"
   class="st1"
   points="146.4,355.1 168.4,425.3 166,426 "
   style="fill:#ce9e62" />
</g>
<g
   id="g942"
   transform="matrix(1.4464318,0,0,1.8854081,15.598473,-337.4929)">
	<polygon
   id="polygon940"
   class="st1"
   points="152,352.3 168.4,425.4 166,425.9 "
   style="fill:#ce9e62" />
</g>
<g
   id="g946"
   transform="matrix(1.4464318,0,0,1.8854081,15.598473,-337.4929)">
	<polygon
   id="polygon944"
   class="st1"
   points="156.8,349.9 168.4,425.5 166,425.9 "
   style="fill:#ce9e62" />
</g>
<g
   id="g950"
   transform="matrix(1.4464318,0,0,1.8854081,15.598473,-337.4929)">
	<polygon
   id="polygon948"
   class="st1"
   points="162,347.3 168.4,425.6 166,425.8 "
   style="fill:#ce9e62" />
</g>
<g
   id="g954"
   transform="matrix(1.4464318,0,0,1.8854081,15.598473,-337.4929)">
	<polygon
   id="polygon952"
   class="st1"
   points="154.3,305.1 94.4,255.6 96,253.7 "
   style="fill:#ce9e62" />
</g>
<g
   id="g958"
   transform="matrix(1.4464318,0,0,1.8854081,15.598473,-337.4929)">
	<polygon
   id="polygon956"
   class="st1"
   points="158.2,302.1 94.4,255.7 96,253.7 "
   style="fill:#ce9e62" />
</g>
<g
   id="g962"
   transform="matrix(1.4464318,0,0,1.8854081,15.598473,-337.4929)">
	<polygon
   id="polygon960"
   class="st1"
   points="162.6,300.3 94.5,255.7 95.9,253.7 "
   style="fill:#ce9e62" />
</g>
<g
   id="g966"
   transform="matrix(1.4464318,0,0,1.8854081,15.598473,-337.4929)">
	<polygon
   id="polygon964"
   class="st1"
   points="167.2,298.1 94.6,255.8 95.8,253.6 "
   style="fill:#ce9e62" />
</g>
<g
   id="g970"
   transform="matrix(1.4464318,0,0,1.8854081,15.598473,-337.4929)">
	<polygon
   id="polygon968"
   class="st1"
   points="167.2,294.7 94.6,255.8 95.8,253.6 "
   style="fill:#ce9e62" />
</g>
<path
   id="path972"
   class="st2"
   d="m 246.44899,57.688644 c 0,-6.97601 4.3393,-12.63224 9.83573,-12.63224"
   style="fill:none;stroke:#ce9e62;stroke-width:1.64644516;stroke-miterlimit:10;stroke-dasharray:none"
   inkscape:connector-curvature="0" />
<path
   id="path974"
   class="st2"
   d="m 246.44899,57.688644 c 0,7.35309 4.3393,13.19786 9.83573,13.19786"
   style="fill:none;stroke:#ce9e62;stroke-width:1.64644516;stroke-miterlimit:10;stroke-dasharray:none"
   inkscape:connector-curvature="0" />
<path
   id="path976"
   class="st2"
   d="m 247.4615,463.42843 c 0,-6.97599 4.33929,-12.6322 9.83572,-12.6322"
   style="fill:none;stroke:#ce9e62;stroke-width:1.64644516;stroke-miterlimit:10;stroke-dasharray:none"
   inkscape:connector-curvature="0" />
<path
   id="path978"
   class="st2"
   d="m 247.4615,463.42843 c 0,7.3531 4.33929,13.19786 9.83572,13.19786"
   style="fill:none;stroke:#ce9e62;stroke-width:1.64644516;stroke-miterlimit:10;stroke-dasharray:none"
   inkscape:connector-curvature="0" />
<ellipse
   id="ellipse980"
   class="st2"
   cx="36.427082"
   cy="261.31277"
   rx="6.6535859"
   ry="9.0499592"
   style="fill:none;stroke:#ce9e62;stroke-width:1.64644516;stroke-miterlimit:10;stroke-dasharray:none" />
</svg>