<?xml version="1.0" encoding="utf-8"?>
<!-- Generator: Adobe Illustrator 19.2.1, SVG Export Plug-In . SVG Version: 6.00 Build 0)  -->
<svg version="1.1" id="layer" xmlns="http://www.w3.org/2000/svg" xmlns:xlink="http://www.w3.org/1999/xlink" x="0px" y="0px"
	 viewBox="0 0 652 652" style="enable-background:new 0 0 652 652;" xml:space="preserve">
<style type="text/css">
	.st0{fill:#E2231A;}
	.st1{fill:#2E2A25;}
</style>
<g>
	<path class="st0" d="M218.1,323v-28.7c-10,0-19.6-1.2-28.9-3.3c-2.7,9.3-4.4,18.8-5,28.4C195.1,321.7,206.4,323,218.1,323"/>
	<path class="st0" d="M102.1,226.4l-24.9,14.4c16.5,28.9,41.7,52.3,71.9,66.7c1.2-9.8,3.2-19.6,6.2-29.1
		C133.1,266.4,114.6,248.3,102.1,226.4"/>
	<path class="st0" d="M71.8,243.9l-24.9,14.4c5.4,9.2,9.7,19,12.8,29.4c9.3-2.4,18.4-5.9,26.9-10.3
		C82.9,265.6,77.9,254.4,71.8,243.9"/>
	<path class="st0" d="M65.2,325.8c0,24.5-6.7,47.5-18.2,67.3l24.9,14.3c14-24,22-51.9,22-81.6c0-4-0.2-8-0.4-11.9
		c-9.2,4-18.7,7.2-28.3,9.4C65.2,324.2,65.2,325,65.2,325.8"/>
	<path class="st0" d="M172.9,408.5l24.9-14.4c-5.5-9.5-9.6-19.5-12.5-29.7c-9.4,2.4-18.4,5.9-26.9,10.3
		C161.8,386.2,166.6,397.6,172.9,408.5"/>
	<path class="st0" d="M198.6,259.8l-24.9-14.4c-16.4,27.9-24.1,60.3-22,92.7c9.2-4,18.7-7.1,28.5-9.4
		C180,304.5,186.4,280.7,198.6,259.8"/>
	<path class="st0" d="M96.9,381.7c-7.8,8.6-14.7,18.1-20.5,28.3l24.9,14.4c5.1-9,11.2-17.3,18.2-24.8
		C112.7,392.9,105.2,386.9,96.9,381.7"/>
	<path class="st0" d="M217.7,327.9c-34.6,0-66.6,10.8-92.9,29.2c8.1,5.8,15.7,12.4,22.6,19.6c20.4-12.7,44.5-20,70.3-20h0.3v-28.8
		H217.7z"/>
	<path class="st0" d="M26.7,329.4v28.8c10.1-0.1,20.1,1.1,29.9,3.3c2.6-9.3,4.2-18.8,4.8-28.5C50,330.5,38.4,329.3,26.7,329.4"/>
	<path class="st0" d="M168.5,410.7c-17.3-30.1-42.8-52.5-72-66.1c-1.1,9.9-3.1,19.7-6,29.2c21.5,11.4,40.2,28.6,53.2,51.2
		c0.1,0.1,0.1,0.2,0.1,0.2l24.9-14.4C168.6,410.9,168.6,410.7,168.5,410.7"/>
	<path class="st0" d="M98.2,274.9c-1.4,0.8-2.7,1.8-4.1,2.6c-21.2,12.3-44.5,18-67.4,17.9v28.8c27.8,0.1,56-6.9,81.8-21.8
		c4.2-2.4,8.3-5.1,12.2-7.8C112.6,288.7,105.1,282.2,98.2,274.9"/>
	<path class="st0" d="M148.3,270c7.7-8.6,14.4-17.9,20-27.7l-24.9-14.4c-4.9,8.5-10.7,16.6-17.5,23.9
		C132.7,258.7,140.2,264.8,148.3,270"/>
	<path class="st1" d="M197.3,414.1h2.4c0.4,0,1.3,0.1,1.3,1.2c0,1-0.7,1.2-1.4,1.2h-2.2V414.1z M197.3,417.3h2.3
		c1.1,0,1.3,0.7,1.3,1.2c0,0.3,0,1.3,0.2,1.8h1.2v-0.2c-0.3-0.2-0.4-0.3-0.4-0.7l-0.1-1.3c0-1-0.4-1.2-0.8-1.4c0.5-0.2,1-0.6,1-1.7
		c0-1.5-1.2-1.9-2.3-1.9h-3.3v7.1h1V417.3z"/>
	<path class="st1" d="M192.3,416.7c0,3.6,3,6.6,6.6,6.6c3.6,0,6.6-3,6.6-6.6c0-3.6-3-6.5-6.6-6.5
		C195.3,410.2,192.3,413.1,192.3,416.7 M193.3,416.7c0-3.1,2.5-5.6,5.6-5.6c3.1,0,5.6,2.5,5.6,5.6c0,3.1-2.5,5.6-5.6,5.6
		C195.8,422.3,193.3,419.8,193.3,416.7"/>
	<polygon class="st1" points="299.7,274.2 280.4,274.2 280.5,341.5 264,341.6 263.9,274.3 244.1,274.3 244.1,260.8 302.3,260.7 	"/>
	<path class="st1" d="M347.8,341.4l-5.7-19.2l-23.7,0l-5.7,19.2l-17,0l26.3-81.1l17.6,0l25.6,80.9L347.8,341.4z M333.6,292.5
		c-0.8-3.7-3.3-14.3-3.3-14.3s-2.3,9.5-3.8,15.6c-1.5,5.8-2.5,9.7-4.3,15l15.8,0C338.1,308.7,335.4,300.3,333.6,292.5"/>
	
		<rect x="373.5" y="260.5" transform="matrix(1 -2.298938e-003 2.298938e-003 1 -0.6908 0.879)" class="st1" width="17" height="80.8"/>
	<path class="st1" d="M544.2,341l-5.7-19.2l-23.7,0l-5.6,19.2l-17,0l26.3-81.1l17.5,0l25.6,81L544.2,341z M530,292
		c-0.8-3.7-3.3-14.3-3.3-14.3s-2.3,9.5-3.8,15.6c-1.5,5.8-2.5,9.7-4.3,15l15.8,0C534.5,308.3,531.8,299.8,530,292"/>
	<path class="st1" d="M609.2,340.8l-13.9-30.9c-4.6-10.1-9.5-21.5-11-26.5c0.6,6.6,0.7,16.1,0.9,22.9l0.6,34.5l-15.7,0l-0.2-80.8
		l18,0l15.5,32.3c4.1,8.6,7.3,17.1,8.9,22.9c-0.6-6.3-1.2-16.6-1.3-22.2l-0.4-33l15.4,0l0.2,80.8L609.2,340.8z"/>
	<polygon class="st1" points="264.9,394.1 264.8,361 283.7,361 282.8,366.4 271.5,366.4 271.5,374.1 281,374.1 281,379.5 
		271.6,379.5 271.6,388.4 284.1,388.4 284.2,394.1 	"/>
	<polygon class="st1" points="305,394 299,382.4 293.1,394 284.9,394.1 295.2,376.3 286.2,361 294.4,361 298.9,369.9 303.4,360.9 
		311.3,360.9 302.7,375.9 313,394 	"/>
	<path class="st1" d="M328.6,394.5c-4.6,0-8.1-1.5-10.8-4.5c-2.7-3-4-7-4-11.8c0-4.1,0.7-7.4,2.2-10.3c2.6-4.8,7.3-7.7,12.6-7.7
		c3.3,0,6.6,1,8.4,2.6l-3,4.5c-1.7-1.2-3.4-1.9-5.3-1.9c-2.3,0-4.4,1.1-5.6,2.9c-1.3,1.9-1.9,4.7-1.8,8.5c0,4.5,0.4,7,1.4,8.8
		c1.3,2.4,3.5,3.7,6.4,3.7c2,0,3.7-0.6,5.7-2.1l3.1,4.2C335.1,393.6,332.3,394.5,328.6,394.5"/>
	<polygon class="st1" points="342,393.9 342,360.9 360.8,360.8 360,366.2 348.6,366.3 348.6,373.9 358.1,373.9 358.1,379.3 
		348.8,379.4 348.8,388.2 361.3,388.2 361.3,393.9 	"/>
	<polygon class="st1" points="383.5,393.8 366.1,393.9 366,360.8 372.8,360.8 372.9,388.4 384.7,388.3 	"/>
	<polygon class="st1" points="406.2,393.8 388.8,393.8 388.7,360.7 395.5,360.7 395.5,388.3 407.4,388.3 	"/>
	<polygon class="st1" points="411.5,393.8 411.4,360.7 430.3,360.7 429.4,366.1 418.1,366.1 418.1,373.8 427.6,373.8 427.6,379.2 
		418.2,379.2 418.2,388.1 430.7,388 430.7,393.7 	"/>
	<path class="st1" d="M451.5,393.7l-5.7-12.7c-1.9-4.1-3.9-8.8-4.5-10.8c0.2,2.7,0.3,6.6,0.4,9.4l0.2,14.1l-6.4,0l-0.1-33.1l7.4,0
		l6.4,13.2c1.7,3.5,3,7,3.6,9.4c-0.3-2.6-0.5-6.8-0.6-9.1l-0.2-13.5h6.3l0.1,33.1H451.5z"/>
	<path class="st1" d="M479,394.2c-4.6,0-8.1-1.5-10.8-4.6c-2.7-3-4-7-4-11.8c0-4.1,0.7-7.4,2.2-10.3c2.6-4.8,7.3-7.7,12.6-7.7
		c3.3,0,6.6,1,8.4,2.6l-3,4.5c-1.7-1.2-3.4-1.8-5.3-1.8c-2.2,0-4.4,1.1-5.6,2.9c-1.3,1.9-1.8,4.7-1.8,8.5c0,4.5,0.4,7,1.4,8.8
		c1.3,2.4,3.5,3.7,6.4,3.7c2,0,3.7-0.6,5.6-2.1l3.1,4.2C485.6,393.2,482.8,394.2,479,394.2"/>
	<polygon class="st1" points="492.5,393.6 492.4,360.5 511.3,360.5 510.4,365.9 499.1,365.9 499.1,373.6 508.6,373.6 508.6,379 
		499.2,379 499.2,387.9 511.7,387.8 511.8,393.6 	"/>
	<path class="st1" d="M477,341.8l-17.1,0l-7.3-33.6c-1.8-11.3-4.1-25.8-4.6-28.5c-0.8,2.9-2.3,17.1-4.2,29l-6.9,33.1l-17.8,0.1
		l-19.5-81.4l16.1,0l6.1,31.9c3.1,15.1,6.3,34,6.3,34c0.6-3.5,3.5-22,5.2-33.7l6.6-32.2l16.7,0l6.8,35.9c1.2,7.8,4.7,29.3,4.7,29.3
		c0.6-2.6,4-26.2,5.7-34.1l6.3-31.2l16,0L477,341.8z"/>
	<path class="st1" d="M543.1,393.5h-19.9v-3.6c1.9-1.6,5.2-4.8,7.8-7.7c4.8-5.3,6.3-8.7,6.3-11.6c0-3.5-2.1-5.2-4.9-5.2
		c-2.9,0-5,1.6-7.1,3.2l-2.7-3.2c3.6-3.1,7.2-4.7,11.5-4.7c5.5,0,9.3,3.9,9.3,9.2c0,3.2-1.8,6.7-4.6,10c-1.3,1.6-3.3,3.5-5.2,5.5
		c-1.7,1.7-3.5,3.5-4.1,3.9c1-0.1,3-0.2,4.7-0.2h10L543.1,393.5z"/>
	<path class="st1" d="M560.5,394.2c-8.6,0-11.3-10-11.3-17c0-9.6,4.9-16.6,11.4-16.6c8.7,0,11.5,9.6,11.5,16.7
		C572,387.5,567.3,394.2,560.5,394.2 M565.3,370c-0.9-3.8-2.6-5.3-4.7-5.3c-1.9,0-3.4,1.5-4.3,4.1c-0.8,2.1-1.1,4.9-1.1,8.3
		c0,3.3,0.2,5.8,0.7,7.6c0.9,3.8,2.6,5.4,4.7,5.4c2,0,3.7-1.8,4.6-4.6c0.6-2.1,0.9-4.9,0.9-8.1C566.1,374.3,565.8,372.1,565.3,370"
		/>
	<path class="st1" d="M580.8,393.5v-4.4h5.7v-21.7c-0.5,0.3-2,1.3-3.3,1.9c-1.3,0.6-3.1,1.4-3.7,1.6l-1.3-2.9l9.8-6.9h3.8v27.9h4.6
		v4.4H580.8z"/>
	<path class="st1" d="M615.2,394.2c-8.6,0-11.3-10-11.3-17c0-9.6,4.9-16.6,11.4-16.6c8.7,0,11.5,9.6,11.5,16.7
		C626.7,387.5,622,394.2,615.2,394.2 M620,370c-0.9-3.8-2.6-5.3-4.7-5.3c-1.9,0-3.4,1.5-4.3,4.1c-0.8,2.1-1.1,4.9-1.1,8.3
		c0,3.3,0.2,5.8,0.7,7.6c0.9,3.8,2.6,5.4,4.7,5.4c2.1,0,3.7-1.8,4.6-4.6c0.6-2.1,0.9-4.9,0.9-8.1C620.7,374.3,620.5,372.1,620,370"
		/>
</g>
</svg>
