<?xml version="1.0" encoding="utf-8"?>
<!-- Generator: Adobe Illustrator 23.0.1, SVG Export Plug-In . SVG Version: 6.00 Build 0)  -->
<svg version="1.1" id="Layer_1" xmlns="http://www.w3.org/2000/svg" xmlns:xlink="http://www.w3.org/1999/xlink" x="0px" y="0px"
	 viewBox="0 0 1366 768" style="enable-background:new 0 0 1366 768;" xml:space="preserve">
<style type="text/css">
	.st0{fill:none;stroke:#CE9E62;stroke-width:1.5;}
</style>
<g id="layer1">
	<g id="flowRoot21968" transform="scale(0.26458333)">
		<path id="path22536" class="st0" d="M2007.32,1283.81h-111.3v-175.9h23.4v155.1h87.9V1283.81z"/>
		<path id="path22538" class="st0" d="M2139.32,1220.11h-97.2c0,8.1,1.2,15.2,3.7,21.3c2.4,6,5.8,10.9,10,14.8
			c4.1,3.8,8.9,6.6,14.5,8.5c5.7,1.9,11.9,2.8,18.7,2.8c9,0,18-1.8,27-5.3c9.1-3.6,15.6-7.2,19.5-10.6h1.2v24.2
			c-7.5,3.1-15.1,5.8-22.9,7.9s-16,3.2-24.6,3.2c-21.9,0-39-5.9-51.3-17.7c-12.3-11.9-18.4-28.7-18.4-50.6
			c0-21.6,5.9-38.7,17.6-51.4c11.8-12.7,27.3-19,46.5-19c17.8,0,31.5,5.2,41.1,15.6c9.7,10.4,14.5,25.2,14.5,44.3L2139.32,1220.11z
			 M2117.72,1203.11c-0.1-11.7-3-20.7-8.9-27c-5.7-6.4-14.5-9.6-26.3-9.6c-11.9,0-21.4,3.5-28.5,10.5c-7,7-11,15.7-11.9,26.1
			H2117.72z"/>
		<path id="path22540" class="st0" d="M2275.52,1283.81h-22.1v-14.1c-2,1.3-4.6,3.2-8,5.7c-3.3,2.4-6.5,4.3-9.7,5.7
			c-3.7,1.8-8,3.3-12.8,4.5c-4.8,1.3-10.4,1.9-16.9,1.9c-11.9,0-22-3.9-30.2-11.8c-8.3-7.9-12.4-17.9-12.4-30.1
			c0-10,2.1-18.1,6.4-24.2c4.3-6.2,10.5-11.1,18.4-14.6c8-3.5,17.7-5.9,28.9-7.2c11.3-1.3,23.3-2.2,36.3-2.8v-3.4
			c0-5-0.9-9.2-2.7-12.5c-1.7-3.3-4.3-5.9-7.6-7.8c-3.1-1.8-6.9-3-11.3-3.7c-4.4-0.6-9-0.9-13.8-0.9c-5.8,0-12.3,0.8-19.5,2.4
			c-7.2,1.5-14.6,3.7-22.2,6.6h-1.2v-22.6c4.3-1.2,10.6-2.5,18.8-3.9c8.2-1.4,16.3-2.1,24.2-2.1c9.3,0,17.4,0.8,24.2,2.4
			c6.9,1.5,12.9,4.1,18,7.8c5,3.6,8.7,8.3,11.3,14.1c2.6,5.7,3.9,12.9,3.9,21.4V1283.81z M2253.42,1251.31v-36.7
			c-6.8,0.4-14.8,1-24,1.8c-9.1,0.8-16.4,1.9-21.7,3.4c-6.4,1.8-11.5,4.6-15.5,8.5c-3.9,3.8-5.9,9-5.9,15.7c0,7.6,2.3,13.3,6.9,17.1
			c4.6,3.8,11.5,5.7,20.9,5.7c7.8,0,14.9-1.5,21.4-4.5C2241.92,1259.21,2247.92,1255.61,2253.42,1251.31L2253.42,1251.31z"/>
		<path id="path22542" class="st0" d="M2425.52,1283.81h-22.2v-13.8c-6.4,5.5-13,9.8-20,12.9c-6.9,3.1-14.4,4.6-22.6,4.6
			c-15.7,0-28.3-6.1-37.6-18.2c-9.2-12.1-13.8-28.9-13.8-50.4c0-11.2,1.6-21.1,4.7-29.9c3.2-8.7,7.6-16.2,13-22.3
			c5.4-6,11.6-10.6,18.7-13.7c7.2-3.1,14.6-4.7,22.2-4.7c6.9,0,13.1,0.7,18.4,2.2c5.4,1.4,11,3.7,16.9,6.7v-57.2h22.2
			L2425.52,1283.81z M2403.32,1251.31v-75.7c-6-2.7-11.3-4.5-16.1-5.6c-4.7-1-9.9-1.5-15.5-1.5c-12.4,0-22.1,4.3-29.1,13
			c-6.9,8.7-10.4,20.9-10.4,36.9c0,15.7,2.7,27.6,8,35.8c5.4,8.1,13.9,12.2,25.7,12.2c6.3,0,12.7-1.4,19.1-4.1
			C2391.72,1259.41,2397.72,1255.71,2403.32,1251.31L2403.32,1251.31z"/>
		<path id="path22544" class="st0" d="M2579.62,1220.11h-97.2c0,8.1,1.2,15.2,3.7,21.3c2.4,6,5.8,10.9,10,14.8
			c4.1,3.8,8.9,6.6,14.5,8.5c5.7,1.9,11.9,2.8,18.7,2.8c9,0,18-1.8,27-5.3c9.1-3.6,15.6-7.2,19.5-10.6h1.2v24.2
			c-7.5,3.1-15.1,5.8-22.9,7.9s-16,3.2-24.6,3.2c-21.9,0-39-5.9-51.3-17.7c-12.3-11.9-18.4-28.7-18.4-50.6
			c0-21.6,5.9-38.7,17.6-51.4c11.8-12.7,27.3-19,46.5-19c17.8,0,31.5,5.2,41.1,15.6c9.7,10.4,14.5,25.2,14.5,44.3L2579.62,1220.11z
			 M2558.02,1203.11c-0.1-11.7-3-20.7-8.9-27c-5.7-6.4-14.5-9.6-26.3-9.6c-11.9,0-21.4,3.5-28.5,10.5c-7,7-11,15.7-11.9,26.1
			H2558.02z"/>
		<path id="path22546" class="st0" d="M2695.62,1176.11h-1.2c-3.3-0.8-6.5-1.3-9.7-1.7c-3.1-0.4-6.7-0.6-11-0.6
			c-6.9,0-13.5,1.5-19.8,4.6c-6.4,3-12.5,6.9-18.4,11.7v93.7h-22.2v-131.9h22.2v19.5c8.8-7.1,16.6-12.1,23.3-15
			c6.8-3,13.7-4.5,20.7-4.5c3.9,0,6.7,0.1,8.4,0.4c1.7,0.2,4.3,0.5,7.8,1.1L2695.62,1176.11z"/>
		<path id="path22548" class="st0" d="M2811.02,1245.81c0,12-5,21.9-15,29.6c-9.9,7.7-23.5,11.6-40.7,11.6c-9.8,0-18.7-1.1-26.9-3.4
			c-8.1-2.4-14.9-4.9-20.4-7.7v-24.9h1.2c7,5.3,14.8,9.5,23.4,12.6c8.6,3.1,16.8,4.6,24.7,4.6c9.8,0,17.4-1.6,22.9-4.7
			s8.3-8.1,8.3-14.9c0-5.2-1.5-9.1-4.5-11.8c-3-2.7-8.7-5-17.2-6.9c-3.1-0.7-7.3-1.5-12.4-2.5c-5-0.9-9.6-2-13.8-3.1
			c-11.6-3.1-19.8-7.6-24.7-13.5c-4.8-6-7.2-13.3-7.2-22c0-5.4,1.1-10.6,3.3-15.4c2.3-4.8,5.7-9.1,10.3-12.9
			c4.4-3.7,10-6.6,16.8-8.7c6.9-2.2,14.5-3.3,22.9-3.3c7.9,0,15.8,1,23.9,3c8.1,1.9,14.8,4.2,20.2,7v23.7h-1.2
			c-5.7-4.2-12.6-7.7-20.7-10.5c-8.1-2.9-16.1-4.4-23.9-4.4c-8.1,0-15,1.6-20.6,4.7c-5.6,3.1-8.4,7.7-8.4,13.8
			c0,5.4,1.7,9.5,5.1,12.3c3.3,2.8,8.7,5,16.1,6.7c4.1,0.9,8.7,1.9,13.7,2.8c5.1,0.9,9.4,1.8,12.8,2.6c10.3,2.4,18.3,6.4,23.9,12.2
			C2808.22,1228.41,2811.02,1236.21,2811.02,1245.81L2811.02,1245.81z"/>
		<path id="path22550" class="st0" d="M2953.22,1283.81h-22.2v-75.1c0-6.1-0.4-11.7-1.1-17c-0.7-5.4-2-9.5-3.9-12.5
			c-2-3.3-4.8-5.7-8.5-7.3c-3.7-1.7-8.5-2.5-14.4-2.5c-6.1,0-12.4,1.5-19,4.5c-6.6,3-13,6.8-19,11.5v98.5h-22.2v-183.9h22.2v66.5
			c6.9-5.7,14.1-10.2,21.5-13.5c7.4-3.2,15-4.8,22.8-4.8c14.3,0,25.1,4.3,32.6,12.9c7.5,8.6,11.2,20.9,11.2,37.1V1283.81z"/>
		<path id="path22552" class="st0" d="M3019.82,1129.81h-25v-23h25V1129.81z M3018.42,1283.81h-22.2v-131.9h22.2V1283.81z"/>
		<path id="path22554" class="st0" d="M3178.72,1216.21c0,10.7-1.5,20.5-4.6,29.4c-3.1,8.8-7.4,16.3-13,22.4
			c-5.2,5.8-11.3,10.4-18.4,13.6c-7,3.1-14.4,4.7-22.3,4.7c-6.9,0-13.1-0.7-18.7-2.2c-5.5-1.5-11.1-3.8-16.9-7v55.3h-22.2v-180.5
			h22.2v13.8c5.9-5,12.5-9.1,19.8-12.4c7.4-3.4,15.3-5.1,23.6-5.1c15.9,0,28.3,6,37.1,18.1
			C3174.22,1178.21,3178.72,1194.91,3178.72,1216.21z M3155.82,1216.81c0-15.9-2.7-27.8-8.1-35.7c-5.4-7.9-13.8-11.8-25-11.8
			c-6.4,0-12.8,1.4-19.3,4.1s-12.6,6.4-18.5,10.9v74.8c6.3,2.8,11.7,4.8,16.2,5.8c4.6,1,9.7,1.5,15.5,1.5c12.4,0,22-4.2,28.9-12.5
			C3152.32,1245.61,3155.82,1233.21,3155.82,1216.81L3155.82,1216.81z"/>
		<path id="path22556" class="st0" d="M2023.82,1536.01c0,6.9-1.6,13.6-4.8,20.3c-3.1,6.7-7.6,12.4-13.3,17c-6.3,5-13.7,9-22.1,11.8
			c-8.3,2.8-18.4,4.3-30.2,4.3c-12.7,0-24.1-1.2-34.3-3.5c-10.1-2.4-20.4-5.9-30.8-10.5v-29.4h1.7c8.9,7.4,19.2,13.1,30.8,17.1
			c11.7,4,22.6,6,32.8,6c14.5,0,25.7-2.7,33.8-8.1s12.2-12.7,12.2-21.7c0-7.8-1.9-13.5-5.8-17.2c-3.8-3.7-9.6-6.6-17.4-8.6
			c-5.9-1.6-12.3-2.9-19.3-3.9c-6.9-1-14.1-2.3-21.9-3.9c-15.6-3.3-27.2-8.9-34.7-16.9s-11.2-18.5-11.2-31.3
			c0-14.7,6.2-26.8,18.7-36.1c12.4-9.4,28.2-14.2,47.4-14.2c12.4,0,23.7,1.2,34,3.5c10.3,2.4,19.4,5.3,27.4,8.7v27.6h-1.7
			c-6.7-5.7-15.5-10.4-26.5-14.1c-10.9-3.8-22-5.7-33.4-5.7c-12.5,0-22.6,2.6-30.2,7.8c-7.6,5.2-11.3,11.9-11.3,20.1
			c0,7.3,1.9,13.1,5.7,17.2c3.8,4.2,10.4,7.4,20,9.6c5,1.1,12.2,2.4,21.5,4c9.3,1.6,17.2,3.2,23.6,4.8c13.1,3.5,22.9,8.7,29.5,15.7
			C2020.52,1513.61,2023.82,1523.41,2023.82,1536.01L2023.82,1536.01z"/>
		<path id="path22558" class="st0" d="M2169.02,1586.21h-22.2v-14.6c-7.5,5.9-14.6,10.4-21.5,13.6c-6.9,3.1-14.4,4.7-22.7,4.7
			c-13.9,0-24.6-4.2-32.4-12.6c-7.7-8.5-11.6-20.9-11.6-37.3v-85.6h22.2v75.1c0,6.7,0.3,12.4,0.9,17.2c0.6,4.7,2,8.8,4,12.2
			c2.1,3.5,4.9,6,8.3,7.6s8.3,2.4,14.8,2.4c5.7,0,12-1.5,18.8-4.5c6.9-3,13.2-6.8,19.1-11.5v-98.5h22.2v131.8H2169.02z"/>
		<path id="path22560" class="st0" d="M2405.22,1586.21h-22.2v-75.2c0-5.7-0.3-11.1-0.8-16.4s-1.5-9.5-3.2-12.6
			c-1.8-3.4-4.4-5.9-7.8-7.7c-3.4-1.7-8.3-2.6-14.6-2.6c-6.2,0-12.4,1.6-18.7,4.7c-6.2,3.1-12.4,7-18.7,11.8
			c0.2,1.8,0.4,3.9,0.6,6.4c0.2,2.4,0.2,4.7,0.2,7.1v84.4h-22.2v-75.1c0-5.8-0.3-11.3-0.8-16.5c-0.5-5.3-1.5-9.5-3.2-12.6
			c-1.8-3.4-4.4-5.9-7.8-7.6c-3.4-1.7-8.3-2.6-14.6-2.6c-6.1,0-12.2,1.5-18.3,4.5c-6.1,3-12.1,6.8-18.2,11.5v98.5h-22.2v-131.9h22.2
			v14.6c6.9-5.7,13.8-10.2,20.7-13.5c6.9-3.2,14.3-4.8,22.1-4.8c9,0,16.6,1.9,22.8,5.7c6.3,3.8,11,9,14.1,15.7
			c9-7.6,17.2-13,24.6-16.3c7.4-3.4,15.3-5.1,23.7-5.1c14.5,0,25.2,4.4,32,13.2c6.9,8.7,10.4,21,10.4,36.7L2405.22,1586.21z"/>
		<path id="path22562" class="st0" d="M2640.52,1586.21h-22.2v-75.2c0-5.7-0.3-11.1-0.8-16.4s-1.5-9.5-3.2-12.6
			c-1.8-3.4-4.4-5.9-7.8-7.7c-3.4-1.7-8.3-2.6-14.6-2.6c-6.2,0-12.4,1.6-18.7,4.7c-6.2,3.1-12.4,7-18.7,11.8
			c0.2,1.8,0.4,3.9,0.6,6.4c0.2,2.4,0.2,4.7,0.2,7.1v84.4h-22.2v-75.1c0-5.8-0.3-11.3-0.8-16.5c-0.5-5.3-1.5-9.5-3.2-12.6
			c-1.8-3.4-4.4-5.9-7.8-7.6c-3.4-1.7-8.3-2.6-14.6-2.6c-6.1,0-12.2,1.5-18.3,4.5c-6.1,3-12.1,6.8-18.2,11.5v98.5h-22.2v-131.9h22.2
			v14.6c6.9-5.7,13.8-10.2,20.7-13.5c6.9-3.2,14.3-4.8,22.1-4.8c9,0,16.6,1.9,22.8,5.7c6.3,3.8,11,9,14.1,15.7
			c9-7.6,17.2-13,24.6-16.3c7.4-3.4,15.3-5.1,23.7-5.1c14.5,0,25.2,4.4,32,13.2c6.9,8.7,10.4,21,10.4,36.7L2640.52,1586.21z"/>
		<path id="path22564" class="st0" d="M2707.12,1432.11h-25v-23h25V1432.11z M2705.72,1586.21h-22.2v-131.9h22.2V1586.21z"/>
		<path id="path22566" class="st0" d="M2818.32,1585.01c-4.2,1.1-8.7,2-13.7,2.7c-4.9,0.7-9.3,1.1-13.1,1.1
			c-13.5,0-23.7-3.6-30.7-10.9c-7-7.3-10.5-18.9-10.5-34.8v-70.2h-15v-18.7h15v-37.9h22.2v37.9h45.8v18.7h-45.8v60.1
			c0,6.9,0.2,12.4,0.5,16.3s1.4,7.5,3.3,10.9c1.7,3.1,4.1,5.5,7.1,7c3.1,1.4,7.7,2.1,13.9,2.1c3.6,0,7.4-0.5,11.3-1.5
			c3.9-1.1,6.8-2,8.5-2.7h1.2L2818.32,1585.01z"/>
		<path id="path22568" class="st0" d="M2954.02,1402.41l-5.1,68.4h-16.1l-5.1-68.4H2954.02z"/>
		<path id="path22570" class="st0" d="M3101.72,1586.21h-95.2v-18h36.6v-117.9h-36.6v-16.1c5,0,10.3-0.4,15.9-1.2
			c5.7-0.9,10-2.1,12.9-3.7c3.6-2,6.5-4.4,8.5-7.4c2.1-3.1,3.3-7.2,3.7-12.3h18.3v158.5h35.9L3101.72,1586.21L3101.72,1586.21z"/>
		<path id="path22572" class="st0" d="M3265.52,1487.71c0,15.4-1.8,29.3-5.3,41.8s-8.7,23.2-15.8,32c-7.2,9-16.1,15.9-26.9,20.8
			c-10.8,4.9-23.5,7.3-38,7.3c-4.1,0-8-0.2-11.6-0.7c-3.6-0.4-6.9-1.1-9.7-2v-22.6h1.2c2.3,1.2,5.5,2.3,9.7,3.4
			c4.2,1,8.8,1.5,13.9,1.5c17.4,0,31-5.2,40.9-15.6c9.9-10.5,15.7-24.9,17.2-43.2c-7.3,4.4-14.2,7.6-20.7,9.4
			c-6.5,1.9-13.5,2.8-21.1,2.8c-7.2,0-13.8-0.7-19.7-2.1c-5.8-1.4-11.7-4.2-17.6-8.3c-6.9-4.8-12.2-10.9-15.7-18.3
			s-5.2-16.3-5.2-26.6c0-18,5.9-32.6,17.7-43.8c11.8-11.3,26.2-16.9,43.2-16.9c8.5,0,16.4,1.3,23.6,4c7.2,2.6,13.6,6.5,19,11.8
			c6.7,6.5,11.9,15,15.5,25.3C3263.72,1458.11,3265.52,1471.41,3265.52,1487.71L3265.52,1487.71z M3241.62,1482.61
			c0-12.2-1.3-22-3.8-29.4s-6-13.1-10.4-17.2c-3.7-3.5-7.7-6.1-11.9-7.6c-4.3-1.6-8.9-2.4-13.8-2.4c-11.3,0-20.3,3.5-26.9,10.6
			c-6.5,7.1-9.8,17-9.8,29.9c0,7.5,1.1,13.6,3.2,18.3c2.1,4.7,5.7,8.9,10.7,12.4c3.5,2.4,7.4,4.1,11.7,5c4.3,0.8,9,1.2,14.2,1.2
			c6.1,0,12.4-0.8,18.7-2.5s12.2-4.1,17.7-7.2c0.1-1.7,0.2-3.3,0.2-4.8C3241.62,1487.21,3241.62,1485.11,3241.62,1482.61
			L3241.62,1482.61z"/>
		<path id="path22574" class="st0" d="M1965.62,1708.81h-39.3v96.9h-14.6v-96.9h-39.3v-13h93.2V1708.81L1965.62,1708.81z"/>
		<path id="path22576" class="st0" d="M2048.32,1805.81h-13.9v-46.9c0-3.8-0.2-7.3-0.7-10.6c-0.4-3.3-1.3-6-2.4-7.8
			c-1.2-2.1-3-3.6-5.3-4.6c-2.3-1-5.3-1.6-9-1.6c-3.8,0-7.8,0.9-11.9,2.8c-4.1,1.9-8.1,4.3-11.9,7.2v61.6h-13.9v-114.9h13.9v41.6
			c4.3-3.6,8.8-6.4,13.4-8.4c4.6-2,9.4-3,14.2-3c8.9,0,15.7,2.7,20.4,8c4.7,5.4,7,13.1,7,23.2v53.4H2048.32z"/>
		<path id="path22578" class="st0" d="M2144.02,1766.01h-60.7c0,5.1,0.8,9.5,2.3,13.3c1.5,3.7,3.6,6.8,6.3,9.2
			c2.6,2.4,5.6,4.1,9.1,5.3c3.5,1.2,7.4,1.8,11.7,1.8c5.6,0,11.2-1.1,16.9-3.3c5.7-2.3,9.8-4.5,12.2-6.6h0.7v15.1
			c-4.7,2-9.4,3.6-14.3,4.9c-4.9,1.3-10,2-15.4,2c-13.7,0-24.4-3.7-32-11.1c-7.7-7.4-11.5-18-11.5-31.6c0-13.5,3.7-24.2,11-32.1
			c7.4-7.9,17.1-11.9,29.1-11.9c11.1,0,19.7,3.2,25.7,9.7c6.1,6.5,9.1,15.7,9.1,27.7L2144.02,1766.01z M2130.52,1755.41
			c0-7.3-1.9-12.9-5.5-16.9c-3.6-4-9.1-6-16.5-6s-13.4,2.2-17.8,6.6s-6.9,9.8-7.5,16.3H2130.52z"/>
		<path id="path22580" class="st0" d="M2258.12,1805.81h-43.4v-11.2h14.4v-87.5h-14.4v-11.2h43.4v11.2h-14.4v87.5h14.4V1805.81z"/>
		<path id="path22582" class="st0" d="M2351.02,1805.81h-13.9v-46.9c0-3.8-0.2-7.3-0.7-10.6c-0.4-3.3-1.3-6-2.4-7.8
			c-1.2-2.1-3-3.6-5.3-4.6s-5.3-1.6-9-1.6c-3.8,0-7.8,0.9-11.9,2.8c-4.1,1.9-8.1,4.3-11.9,7.2v61.6h-13.9v-82.5h13.9v9.2
			c4.3-3.6,8.8-6.4,13.4-8.4c4.6-2,9.4-3,14.2-3c8.9,0,15.7,2.7,20.4,8c4.7,5.4,7,13.1,7,23.2L2351.02,1805.81z"/>
		<path id="path22584" class="st0" d="M2422.02,1704.31h-0.7c-1.5-0.4-3.5-0.9-6-1.3c-2.5-0.5-4.6-0.7-6.5-0.7c-6,0-10.3,1.3-13,4
			c-2.7,2.6-4,7.4-4,14.2v2.8h25v11.7h-24.5v70.8h-13.9v-70.8h-9.4v-11.7h9.4v-2.7c0-9.8,2.4-17.3,7.3-22.5
			c4.9-5.3,11.9-7.9,21.1-7.9c3.1,0,5.9,0.1,8.3,0.4c2.5,0.3,4.8,0.6,6.9,1L2422.02,1704.31L2422.02,1704.31z"/>
		<path id="path22586" class="st0" d="M2444.92,1805.81h-13.9v-114.9h13.9V1805.81z"/>
		<path id="path22588" class="st0" d="M2541.52,1766.01h-60.8c0,5.1,0.8,9.5,2.3,13.3c1.5,3.7,3.6,6.8,6.3,9.2
			c2.6,2.4,5.6,4.1,9.1,5.3c3.5,1.2,7.4,1.8,11.7,1.8c5.6,0,11.2-1.1,16.9-3.3c5.7-2.3,9.8-4.5,12.2-6.6h0.7v15.1
			c-4.7,2-9.4,3.6-14.3,4.9c-4.9,1.3-10,2-15.4,2c-13.7,0-24.4-3.7-32-11.1c-7.7-7.4-11.5-18-11.5-31.6c0-13.5,3.7-24.2,11-32.1
			c7.4-7.9,17.1-11.9,29.1-11.9c11.1,0,19.7,3.2,25.7,9.7c6.1,6.5,9.1,15.7,9.1,27.7L2541.52,1766.01z M2528.02,1755.41
			c0-7.3-1.9-12.9-5.5-16.9c-3.6-4-9.1-6-16.5-6c-7.4,0-13.4,2.2-17.8,6.6c-4.4,4.4-6.9,9.8-7.5,16.3H2528.02z"/>
		<path id="path22590" class="st0" d="M2633.92,1805.81h-17.5l-23.4-31.7l-23.5,31.7h-16.2l32.2-41.1l-31.9-41.3h17.5l23.3,31.2
			l23.3-31.2h16.2l-32.4,40.6L2633.92,1805.81z"/>
		<path id="path22592" class="st0" d="M2666.92,1709.51h-15.6v-14.4h15.6V1709.51z M2666.02,1805.81h-13.9v-82.5h13.9V1805.81z"/>
		<path id="path22594" class="st0" d="M2763.92,1764.61c0,13.4-3.4,24-10.3,31.8c-6.9,7.8-16.1,11.7-27.7,11.7
			c-11.7,0-20.9-3.9-27.8-11.7c-6.8-7.8-10.3-18.4-10.3-31.8s3.4-24,10.3-31.8c6.9-7.8,16.2-11.7,27.8-11.7s20.8,3.9,27.7,11.7
			C2760.52,1740.51,2763.92,1751.11,2763.92,1764.61z M2749.62,1764.61c0-10.7-2.1-18.6-6.3-23.8c-4.2-5.2-10-7.8-17.4-7.8
			c-7.5,0-13.4,2.6-17.6,7.8c-4.1,5.2-6.2,13.1-6.2,23.8c0,10.3,2.1,18.2,6.3,23.5c4.2,5.3,10,8,17.5,8c7.4,0,13.2-2.6,17.3-7.9
			C2747.52,1782.91,2749.62,1775.01,2749.62,1764.61L2749.62,1764.61z"/>
		<path id="path22596" class="st0" d="M2854.42,1805.81h-13.9v-46.9c0-3.8-0.2-7.3-0.7-10.6c-0.4-3.3-1.3-6-2.4-7.8
			c-1.2-2.1-3-3.6-5.3-4.6s-5.3-1.6-9-1.6c-3.8,0-7.8,0.9-11.9,2.8c-4.1,1.9-8.1,4.3-11.9,7.2v61.6h-13.9v-82.5h13.9v9.2
			c4.3-3.6,8.8-6.4,13.4-8.4c4.6-2,9.4-3,14.2-3c8.9,0,15.7,2.7,20.4,8c4.7,5.4,7,13.1,7,23.2L2854.42,1805.81z"/>
		<path id="path22598" class="st0" d="M3007.32,1729.11c0,4.9-0.9,9.4-2.6,13.6c-1.7,4.1-4,7.7-7.1,10.8c-3.8,3.8-8.3,6.6-13.4,8.6
			c-5.2,1.9-11.7,2.8-19.6,2.8h-14.6v41h-14.6v-109.9h29.8c6.6,0,12.2,0.6,16.8,1.7s8.6,2.8,12.2,5.2c4.2,2.8,7.4,6.3,9.7,10.5
			C3006.12,1717.41,3007.32,1722.71,3007.32,1729.11L3007.32,1729.11z M2992.12,1729.41c0-3.8-0.7-7.1-2-9.9s-3.3-5.1-6.1-6.9
			c-2.4-1.5-5.1-2.6-8.1-3.2c-3-0.7-6.8-1-11.4-1h-14.5v43.9h12.3c5.9,0,10.7-0.5,14.4-1.6s6.7-2.8,9-5.1c2.3-2.4,3.9-4.8,4.9-7.5
			C2991.62,1735.61,2992.12,1732.71,2992.12,1729.41L2992.12,1729.41z"/>
		<path id="path22600" class="st0" d="M3092.32,1764.61c0,13.4-3.4,24-10.3,31.8c-6.9,7.8-16.1,11.7-27.7,11.7
			c-11.7,0-20.9-3.9-27.8-11.7c-6.8-7.8-10.3-18.4-10.3-31.8s3.4-24,10.3-31.8c6.9-7.8,16.2-11.7,27.8-11.7s20.8,3.9,27.7,11.7
			C3088.82,1740.51,3092.32,1751.11,3092.32,1764.61z M3077.92,1764.61c0-10.7-2.1-18.6-6.3-23.8c-4.2-5.2-10-7.8-17.4-7.8
			c-7.5,0-13.4,2.6-17.6,7.8c-4.1,5.2-6.2,13.1-6.2,23.8c0,10.3,2.1,18.2,6.3,23.5c4.2,5.3,10,8,17.5,8c7.4,0,13.2-2.6,17.3-7.9
			C3075.82,1782.91,3077.92,1775.01,3077.92,1764.61L3077.92,1764.61z"/>
		<path id="path22604" class="st0" d="M3224.42,1805.81h-13.9v-46.9c0-3.8-0.2-7.3-0.7-10.6c-0.4-3.3-1.3-6-2.4-7.8
			c-1.2-2.1-3-3.6-5.3-4.6s-5.3-1.6-9-1.6c-3.8,0-7.8,0.9-11.9,2.8c-4.1,1.9-8.1,4.3-11.9,7.2v61.6h-13.9v-82.5h13.9v9.2
			c4.3-3.6,8.8-6.4,13.4-8.4c4.6-2,9.4-3,14.2-3c8.9,0,15.7,2.7,20.4,8c4.7,5.4,7,13.1,7,23.2v53.4H3224.42z"/>
		<path id="path22606" class="st0" d="M3293.92,1805.01c-2.6,0.7-5.5,1.3-8.6,1.7c-3.1,0.4-5.8,0.7-8.2,0.7
			c-8.4,0-14.8-2.3-19.2-6.8s-6.6-11.8-6.6-21.8v-43.8h-9.4v-11.7h9.4v-23.7h13.9v23.7h28.6v11.7h-28.5v37.6c0,4.3,0.1,7.7,0.3,10.2
			c0.2,2.4,0.9,4.7,2.1,6.8c1.1,2,2.6,3.4,4.4,4.4c1.9,0.9,4.8,1.3,8.7,1.3c2.3,0,4.6-0.3,7.1-1s4.2-1.3,5.3-1.7h0.7V1805.01z"/>
		<path id="path22602" class="st0" d="M3128.72,1709.51h-15.6v-14.4h15.6V1709.51z M3127.82,1805.81h-13.9v-82.5h13.9V1805.81z"/>
	</g>
</g>
</svg>
